<?xml version="1.0" encoding="UTF-8"?>
<svg version="1.1" xmlns="http://www.w3.org/2000/svg" width="1024" height="1024">
<path d="M0 0 C337.92 0 675.84 0 1024 0 C1024 337.92 1024 675.84 1024 1024 C686.08 1024 348.16 1024 0 1024 C0 686.08 0 348.16 0 0 Z " fill="#FDFDFD" transform="translate(0,0)"/>
<path d="M0 0 C3.61779583 1.56855484 6.22537284 3.79306124 9.1875 6.375 C25.54705283 20.30064573 44.19198977 31.71114453 63 42 C63.80228027 42.44069824 64.60456055 42.88139648 65.43115234 43.33544922 C106.9018337 65.95930328 153.30474459 82.44300724 200 90 C196.59450128 92.79362145 193.11557706 95.32797375 189.4375 97.75 C188.38433594 98.44738281 187.33117187 99.14476562 186.24609375 99.86328125 C184.15682269 101.23852947 182.06581172 102.61113994 179.97265625 103.98046875 C169.19465239 111.07610598 159.01027311 118.86566784 149 127 C148.15050781 127.68578125 147.30101562 128.3715625 146.42578125 129.078125 C136.06322747 137.48919055 125.91529804 146.13619838 116.12182617 155.2043457 C113.41521657 157.71043195 110.67710687 160.16389652 107.875 162.5625 C103.94035149 165.96654239 100.31566371 169.64877781 96.6875 173.375 C94.55035801 175.46244102 92.38902477 177.4087108 90.125 179.3515625 C86.14799781 182.80164914 82.5582083 186.49989794 79 190.375 C77.6929975 191.78412243 76.38569544 193.19296706 75.078125 194.6015625 C74.40974609 195.32375977 73.74136719 196.04595703 73.05273438 196.79003906 C70.31665163 199.73568856 67.55753463 202.65919993 64.79711914 205.58203125 C50.61537352 220.56977977 50.61537352 220.56977977 37.25 236.28125 C34.89524929 239.12657378 32.4399162 241.8464629 29.9375 244.5625 C26.1382825 248.69487965 22.58348067 252.93865111 19.1171875 257.3515625 C16.70268276 260.37192083 14.20046941 263.31183318 11.6875 266.25 C7.4263845 271.24667834 3.32394372 276.34525104 -0.70947266 281.52685547 C-6.3605691 288.77522067 -12.18573813 295.88238213 -18 303 C-21.53324825 302.42149623 -23.14517694 301.20353355 -25.609375 298.6484375 C-26.28226563 297.96136719 -26.95515625 297.27429688 -27.6484375 296.56640625 C-28.34195313 295.84324219 -29.03546875 295.12007813 -29.75 294.375 C-34.43049054 289.54323885 -39.15462368 284.89934095 -44.25878906 280.51416016 C-46.27088486 278.76443804 -48.14824264 276.91789155 -50 275 C-53.27054255 271.68447946 -56.64463364 268.55619366 -60.19921875 265.546875 C-61.69242096 264.26421106 -63.10808053 262.89191947 -64.5 261.5 C-68.06772355 259.35936587 -71.09467172 260.21376172 -75 261 C-77.83931682 261.7907301 -80.6009623 262.75665749 -83.375 263.75 C-92.4806037 266.90571186 -101.69239993 269.51357256 -111 272 C-109.62328125 273.17755859 -109.62328125 273.17755859 -108.21875 274.37890625 C-81.94622073 296.86288662 -81.94622073 296.86288662 -71.6484375 307.38671875 C-69.79346582 309.20212943 -67.84936395 310.87805195 -65.875 312.5625 C-62.5215249 315.44610239 -59.82649742 318.59370824 -57 322 C-55.15691376 323.62238054 -53.27910125 325.177344 -51.35546875 326.703125 C-50.90816406 327.13109375 -50.46085938 327.5590625 -50 328 C-50 328.66 -50 329.32 -50 330 C-49.40638672 330.25531494 -48.81277344 330.51062988 -48.20117188 330.77368164 C-45.77374314 332.12605237 -44.52899395 333.47518721 -42.78125 335.62109375 C-38.97948457 340.11086524 -34.82074236 344.07798714 -30.5 348.0625 C-29.05106672 349.4064569 -27.60313964 350.75149944 -26.15625 352.09765625 C-25.46144531 352.7436377 -24.76664063 353.38961914 -24.05078125 354.05517578 C-21.44583862 356.52552971 -18.9278751 359.07416621 -16.42773438 361.65014648 C-15.0220929 363.10958431 -15.0220929 363.10958431 -13 364 C-12.65195312 362.98099609 -12.65195312 362.98099609 -12.296875 361.94140625 C-10.69077303 358.29865087 -8.5327649 355.1765857 -6.25 351.9375 C-5.77119385 351.24994629 -5.2923877 350.56239258 -4.79907227 349.85400391 C-3.75716205 348.35957371 -2.71287514 346.86679836 -1.66650391 345.37548828 C0.0567332 342.91913067 1.77304084 340.45804086 3.48828125 337.99609375 C9.87771715 328.83492475 16.31547005 319.71002843 22.82763672 310.63574219 C24.01405039 308.98039617 25.19702957 307.32265037 26.37890625 305.6640625 C39.35169466 287.45976228 52.57106398 269.47765272 66.1315918 251.70654297 C69.65182062 247.09143495 73.15796378 242.46767785 76.625 237.8125 C82.07906135 230.51613167 87.69685561 223.34684005 93.30712891 216.17041016 C94.83974885 214.20545612 96.36478447 212.23495215 97.88671875 210.26171875 C103.15458336 203.45628427 108.62517837 196.87854912 114.29614258 190.40478516 C117.52114348 186.72141094 120.67144854 182.99546435 123.75 179.1875 C127.21668831 174.90919137 130.83270822 170.80982864 134.54296875 166.7421875 C137.46408423 163.48205544 140.29304507 160.14997294 143.125 156.8125 C146.74307714 152.55730208 150.4005885 148.44931181 154.42578125 144.5703125 C156.21312444 142.7874044 157.85267648 140.91278625 159.5 139 C162.26027294 135.79611177 165.16105251 132.81286157 168.17919922 129.85351562 C169.83706125 128.16586632 171.35994248 126.43375357 172.8828125 124.625 C177.84541382 118.91813997 183.22703451 113.62342376 188.58154297 108.28808594 C190.39539617 106.47966491 192.2037518 104.66586636 194.01171875 102.8515625 C195.16113721 101.7028036 196.31086517 100.55435427 197.4609375 99.40625 C198.27333389 98.59081726 198.27333389 98.59081726 199.10214233 97.75891113 C202.88500386 94 202.88500386 94 204 94 C205.311256 138.14561862 196.94548106 184.53127188 182 226 C181.77376953 226.63711914 181.54753906 227.27423828 181.31445312 227.93066406 C179.62971228 232.6552634 177.83951624 237.33366777 176 242 C175.66548828 242.85239258 175.33097656 243.70478516 174.98632812 244.58300781 C162.41111516 276.35727587 146.56383568 305.70438708 126 333 C125.53384277 333.62455078 125.06768555 334.24910156 124.58740234 334.89257812 C117.81210878 343.93280429 110.34698722 352.16062266 102.56152344 360.33691406 C100.48348404 362.55011049 98.49320066 364.83541263 96.5 367.125 C88.44625469 376.12184187 79.28470452 384.20604597 69.8515625 391.72265625 C67.83807156 393.3306908 65.8620321 394.95499519 63.8984375 396.62109375 C45.57614997 411.98397453 22.86242664 428.37919112 0 436 C-1.91918945 435.32592773 -1.91918945 435.32592773 -4.11328125 434.18359375 C-4.93787842 433.75651123 -5.76247559 433.32942871 -6.61206055 432.8894043 C-7.94877808 432.17071167 -7.94877808 432.17071167 -9.3125 431.4375 C-10.70625854 430.69463745 -10.70625854 430.69463745 -12.12817383 429.93676758 C-29.56759872 420.48645103 -45.61584033 409.48789486 -61 397 C-62.04466036 396.16812357 -63.09014286 395.33727774 -64.13671875 394.5078125 C-70.05637159 389.76195673 -75.6577664 384.72512028 -81.21484375 379.56640625 C-83.52647016 377.43633815 -85.8661298 375.36048242 -88.25 373.3125 C-94.35804324 368.00115805 -99.91874498 362.23547391 -105.1796875 356.08984375 C-106.40630233 354.68160569 -107.66263514 353.29877767 -108.9453125 351.94140625 C-121.65355626 338.41251944 -132.00067496 322.58293034 -142 307 C-142.38430176 306.40396973 -142.76860352 305.80793945 -143.16455078 305.19384766 C-156.63177484 284.10867794 -167.19748134 261.36982406 -176 238 C-176.60086426 236.41783691 -176.60086426 236.41783691 -177.21386719 234.80371094 C-188.65015585 204.34151088 -196.68102517 171.38417185 -200 139 C-200.08878418 138.15356934 -200.17756836 137.30713867 -200.26904297 136.43505859 C-201.82173523 121.26161562 -202.26554573 106.24641016 -202 91 C-201.08935791 90.8141333 -200.17871582 90.6282666 -199.24047852 90.43676758 C-176.45133611 85.90265675 -176.45133611 85.90265675 -154.08837891 79.6706543 C-151.3307207 78.78507011 -148.55953167 77.94618765 -145.7890625 77.1015625 C-92.06414822 60.5793851 -43.32623329 36.0658427 0 0 Z " fill="#1772AB" transform="translate(511,195)"/>
<path d="M0 0 C1.311256 44.14561862 -7.05451894 90.53127188 -22 132 C-22.22623047 132.63711914 -22.45246094 133.27423828 -22.68554688 133.93066406 C-24.37028772 138.6552634 -26.16048376 143.33366777 -28 148 C-28.33451172 148.85239258 -28.66902344 149.70478516 -29.01367188 150.58300781 C-41.58888484 182.35727587 -57.43616432 211.70438708 -78 239 C-78.46615723 239.62455078 -78.93231445 240.24910156 -79.41259766 240.89257812 C-86.18789122 249.93280429 -93.65301278 258.16062266 -101.43847656 266.33691406 C-103.51651596 268.55011049 -105.50679934 270.83541263 -107.5 273.125 C-115.55374531 282.12184187 -124.71529548 290.20604597 -134.1484375 297.72265625 C-136.16192844 299.3306908 -138.1379679 300.95499519 -140.1015625 302.62109375 C-158.42385003 317.98397453 -181.13757336 334.37919112 -204 342 C-206.6875 340.5625 -206.6875 340.5625 -209 339 C-208.01 338.67 -207.02 338.34 -206 338 C-206.495 337.071875 -206.99 336.14375 -207.5 335.1875 C-209 332 -209 332 -209 329 C-209.99 328.67 -210.98 328.34 -212 328 C-215 323.66666667 -215 323.66666667 -215 321 C-215.763125 320.835 -216.52625 320.67 -217.3125 320.5 C-220.64205694 318.64164264 -220.87356718 316.99697859 -221.99609375 313.48828125 C-225.02101354 305.99071742 -230.27207588 299.58821865 -236 294 C-238.86495626 290.54497145 -241.09607644 286.93517434 -243 282.875 C-244.76193842 279.18061298 -247.02148391 276.82959028 -250 274 C-254 268.48648649 -254 268.48648649 -254 266 C-254.66 266 -255.32 266 -256 266 C-257.26171875 264.34765625 -257.26171875 264.34765625 -258.6875 262.0625 C-261.44078356 257.76601801 -264.45784831 253.80173162 -267.6796875 249.84765625 C-269 248 -269 248 -269 246 C-269.66 246 -270.32 246 -271 246 C-272.8915307 243.78581383 -274.67649679 241.56433016 -276.4375 239.25 C-276.92798828 238.61578125 -277.41847656 237.9815625 -277.92382812 237.328125 C-278.87432623 236.09671045 -279.82028526 234.86177629 -280.76123047 233.62304688 C-281.72976258 232.35406747 -282.7218247 231.1030387 -283.72265625 229.859375 C-285 228 -285 228 -285.79296875 225.76171875 C-287.61492422 221.59303747 -290.4749926 218.34241716 -293.3125 214.8125 C-298.43396831 208.3224444 -303.48255766 201.7899176 -308.375 195.125 C-308.94001221 194.37065674 -309.50502441 193.61631348 -310.0871582 192.83911133 C-310.60238037 192.13165771 -311.11760254 191.4242041 -311.6484375 190.6953125 C-312.10395996 190.07672363 -312.55948242 189.45813477 -313.02880859 188.82080078 C-314 187 -314 187 -314 183 C-308.76146447 183.4125444 -305.85480853 185.26224683 -302.0625 188.6875 C-301.50675293 189.17371826 -300.95100586 189.65993652 -300.37841797 190.16088867 C-294.11122488 195.68886991 -288.02879903 201.4230833 -281.95556641 207.16210938 C-279.93310646 209.06286824 -277.89650125 210.94733292 -275.85546875 212.828125 C-275.1785498 213.45356201 -274.50163086 214.07899902 -273.80419922 214.72338867 C-272.51251775 215.91611195 -271.21869759 217.10652486 -269.92236328 218.29418945 C-266.62658715 221.34782878 -263.78583716 224.46204698 -261 228 C-259.18237646 229.63660006 -257.30336534 231.14500953 -255.390625 232.66796875 C-254.93171875 233.10753906 -254.4728125 233.54710937 -254 234 C-254 234.66 -254 235.32 -254 236 C-253.10958008 236.38297241 -253.10958008 236.38297241 -252.20117188 236.77368164 C-249.77374314 238.12605237 -248.52899395 239.47518721 -246.78125 241.62109375 C-242.97948457 246.11086524 -238.82074236 250.07798714 -234.5 254.0625 C-233.05106672 255.4064569 -231.60313964 256.75149944 -230.15625 258.09765625 C-229.11404297 259.06662842 -229.11404297 259.06662842 -228.05078125 260.05517578 C-225.44583862 262.52552971 -222.9278751 265.07416621 -220.42773438 267.65014648 C-219.0220929 269.10958431 -219.0220929 269.10958431 -217 270 C-216.76796875 269.32066406 -216.5359375 268.64132812 -216.296875 267.94140625 C-214.69077303 264.29865087 -212.5327649 261.1765857 -210.25 257.9375 C-209.53179077 256.90616943 -209.53179077 256.90616943 -208.79907227 255.85400391 C-207.75716205 254.35957371 -206.71287514 252.86679836 -205.66650391 251.37548828 C-203.9432668 248.91913067 -202.22695916 246.45804086 -200.51171875 243.99609375 C-194.12228285 234.83492475 -187.68452995 225.71002843 -181.17236328 216.63574219 C-179.98594961 214.98039617 -178.80297043 213.32265037 -177.62109375 211.6640625 C-164.64830534 193.45976228 -151.42893602 175.47765272 -137.8684082 157.70654297 C-134.34817938 153.09143495 -130.84203622 148.46767785 -127.375 143.8125 C-121.92093865 136.51613167 -116.30314439 129.34684005 -110.69287109 122.17041016 C-109.16025115 120.20545612 -107.63521553 118.23495215 -106.11328125 116.26171875 C-100.84541664 109.45628427 -95.37482163 102.87854912 -89.70385742 96.40478516 C-86.47885652 92.72141094 -83.32855146 88.99546435 -80.25 85.1875 C-76.78331169 80.90919137 -73.16729178 76.80982864 -69.45703125 72.7421875 C-66.53591577 69.48205544 -63.70695493 66.14997294 -60.875 62.8125 C-57.25692286 58.55730208 -53.5994115 54.44931181 -49.57421875 50.5703125 C-47.78687556 48.7874044 -46.14732352 46.91278625 -44.5 45 C-41.73972706 41.79611177 -38.83894749 38.81286157 -35.82080078 35.85351562 C-34.16293875 34.16586632 -32.64005752 32.43375357 -31.1171875 30.625 C-26.15458618 24.91813997 -20.77296549 19.62342376 -15.41845703 14.28808594 C-13.60460383 12.47966491 -11.7962482 10.66586636 -9.98828125 8.8515625 C-8.83886279 7.7028036 -7.68913483 6.55435427 -6.5390625 5.40625 C-5.72666611 4.59081726 -5.72666611 4.59081726 -4.89785767 3.75891113 C-1.11499614 0 -1.11499614 0 0 0 Z " fill="#2E7E3D" transform="translate(715,289)"/>
<path d="M0 0 C15.68328873 14.20559192 26.48516411 32.62691493 27.64453125 54.05664062 C28.31682617 76.40991637 21.71991918 97.57528181 6.20556641 114.09472656 C0.61043807 119.90828333 -5.13460934 125.58376483 -10.88183594 131.24633789 C-15.14854727 135.46494501 -19.24457094 139.75238647 -23.15380859 144.3046875 C-25.2558738 146.74699829 -27.44535226 149.10489754 -29.6328125 151.47070312 C-33.51734373 155.72491028 -37.14601978 160.10624211 -40.703125 164.63476562 C-42.76645016 167.18357905 -44.92366878 169.61002472 -47.1328125 172.03320312 C-51.0162628 176.29504089 -54.6819125 180.69269318 -58.30859375 185.17382812 C-60.91921938 188.36981499 -63.58260477 191.51634124 -66.2578125 194.65820312 C-74.35836408 204.08424693 -74.35836408 204.08424693 -81.6953125 214.09570312 C-82.3553125 214.09570312 -83.0153125 214.09570312 -83.6953125 214.09570312 C-83.70989502 213.04705078 -83.72447754 211.99839844 -83.73950195 210.91796875 C-83.79783883 206.9964123 -83.87506687 203.07540898 -83.95776367 199.15429688 C-83.99084759 197.46298251 -84.01893009 195.77156213 -84.04174805 194.08007812 C-84.07560086 191.63691373 -84.12792758 189.19470658 -84.18359375 186.75195312 C-84.18998367 186.00578735 -84.1963736 185.25962158 -84.20295715 184.49084473 C-84.37782583 178.12884564 -85.75362797 172.85079604 -89.44775391 167.60913086 C-92.62660978 165.46859995 -94.85418882 165.71900119 -98.65625 165.88085938 C-100.0286413 165.91683994 -101.4010373 165.95264164 -102.7734375 165.98828125 C-104.92194959 166.06897309 -107.06984715 166.15818255 -109.21777344 166.25317383 C-111.30134621 166.33811507 -113.38412244 166.39183816 -115.46875 166.44335938 C-116.71060059 166.49500244 -117.95245117 166.54664551 -119.23193359 166.59985352 C-123.86719379 165.92511699 -125.39309224 164.35567358 -128.6953125 161.09570312 C-130.96370002 157.85608072 -130.88640126 155.05125419 -130.9453125 151.15820312 C-131.08404856 146.95008568 -131.08404856 146.95008568 -133.08984375 143.44726562 C-133.64027344 143.063125 -134.19070313 142.67898438 -134.7578125 142.28320312 C-135.7271875 141.56132812 -136.6965625 140.83945312 -137.6953125 140.09570312 C-137.8828125 136.40820312 -137.8828125 136.40820312 -137.6953125 133.09570312 C-139.1803125 132.10570312 -139.1803125 132.10570312 -140.6953125 131.09570312 C-140.98828125 128.27539062 -140.98828125 128.27539062 -140.8828125 124.97070312 C-140.85574219 123.875 -140.82867187 122.77929688 -140.80078125 121.65039062 C-140.76597656 120.80734375 -140.73117187 119.96429688 -140.6953125 119.09570312 C-141.52675781 118.76957031 -142.35820312 118.4434375 -143.21484375 118.10742188 C-144.30152344 117.67042969 -145.38820313 117.2334375 -146.5078125 116.78320312 C-147.58675781 116.35394531 -148.66570312 115.9246875 -149.77734375 115.48242188 C-154.16737587 113.39612816 -154.16737587 113.39612816 -155.6953125 111.09570312 C-155.19370245 108.01250619 -154.00136323 105.55645935 -152.515625 102.83007812 C-152.08121094 102.02183594 -151.64679688 101.21359375 -151.19921875 100.38085938 C-150.28828987 98.70609212 -149.37684123 97.03160746 -148.46484375 95.35742188 C-142.95372712 85.71316259 -142.95372712 85.71316259 -141.8828125 74.97070312 C-142.00011719 74.12636719 -142.11742187 73.28203125 -142.23828125 72.41210938 C-142.805519 69.53713515 -143.7144282 66.85444021 -144.6953125 64.09570312 C-147.70754194 46.47416089 -145.59229091 29.29619964 -135.6953125 14.09570312 C-123.44178015 -2.79947131 -104.63522632 -12.16970547 -84.6953125 -16.90429688 C-83.75171875 -17.13117188 -82.808125 -17.35804688 -81.8359375 -17.59179688 C-53.97057252 -23.01424628 -21.96803173 -19.09907236 0 0 Z " fill="#F3F7FB" transform="translate(574.6953125,272.904296875)"/>
<path d="M0 0 C0.98613281 0.42925781 1.97226562 0.85851562 2.98828125 1.30078125 C5.48050795 2.58115821 7.59139272 3.83037882 9.6875 5.6875 C9.6875 6.3475 9.6875 7.0075 9.6875 7.6875 C4.38136515 10.73717983 -0.95511558 13.72879077 -6.3125 16.6875 C-7.16392578 17.15833008 -8.01535156 17.62916016 -8.89257812 18.11425781 C-29.50105201 29.41934779 -51.13958725 38.13514539 -73.27783203 45.96728516 C-75.17681697 46.63947205 -77.07103417 47.32508619 -78.96484375 48.01171875 C-90.52664044 52.06154146 -102.41146174 54.83177966 -114.3125 57.6875 C-115.53066406 57.9865625 -116.74882812 58.285625 -118.00390625 58.59375 C-124.69469082 60.19884043 -131.436961 61.54818391 -138.1875 62.875 C-139.08041748 63.05434082 -139.97333496 63.23368164 -140.89331055 63.41845703 C-142.17975464 63.66571533 -142.17975464 63.66571533 -143.4921875 63.91796875 C-144.25257324 64.06645264 -145.01295898 64.21493652 -145.79638672 64.36791992 C-148.98155043 64.77247836 -152.10552873 64.73571961 -155.3125 64.6875 C-153.99075975 99.62700338 -151.52357395 133.42177467 -144.3125 167.6875 C-144.10898926 168.68974609 -143.90547852 169.69199219 -143.69580078 170.72460938 C-131.3478173 231.51795441 -103.65173583 289.8210452 -64.68505859 337.99023438 C-63.40304991 339.57552864 -62.13270755 341.17023757 -60.86328125 342.765625 C-53.86725485 351.3514746 -46.05423354 359.15800914 -38.25 367 C-37.69537079 367.55989624 -37.14074158 368.11979248 -36.56930542 368.69665527 C-29.47334718 375.84460575 -22.21192902 382.42606866 -14.3125 388.6875 C-13.27287621 389.56219848 -12.23774534 390.44232304 -11.2109375 391.33203125 C5.22754301 405.45487441 23.67818344 417.18949334 42.65869141 427.57470703 C44.71959807 428.70510565 46.77185013 429.85028095 48.82421875 430.99609375 C50.15315111 431.72746216 51.48256057 432.45796448 52.8125 433.1875 C53.41570068 433.52595947 54.01890137 433.86441895 54.64038086 434.21313477 C58.38318552 436.23897957 61.40971672 437.7442619 65.6875 437.6875 C69.43420177 436.29313984 72.87555513 434.42214457 76.375 432.5 C77.39303711 431.95335693 78.41107422 431.40671387 79.45996094 430.84350586 C89.16024656 425.56585436 98.49649334 419.80201103 107.6875 413.6875 C108.49203613 413.15479492 109.29657227 412.62208984 110.12548828 412.07324219 C123.50513685 403.17814105 136.39383192 393.86783342 148.2109375 382.953125 C150.23093822 381.10517481 152.28021481 379.31575533 154.35546875 377.53125 C159.31363841 373.20239539 163.97420575 368.59225687 168.625 363.9375 C169.51018311 363.05223633 170.39536621 362.16697266 171.30737305 361.25488281 C177.1871983 355.32336081 182.56768722 349.28507693 187.6875 342.6875 C188.78264874 341.45029187 189.88672668 340.22092475 191 339 C230.07445723 294.67943509 254.94782546 236.46012159 268.6875 179.6875 C268.93870605 178.65109375 269.18991211 177.6146875 269.44873047 176.546875 C278.13676443 140.08245486 281.03266892 103.05266767 281.6875 65.6875 C280.38039063 65.51734375 279.07328125 65.3471875 277.7265625 65.171875 C255.66460127 62.21531022 234.37324157 57.13932596 213.31445312 49.91845703 C209.05245046 48.45757553 204.77249769 47.10433506 200.45703125 45.80859375 C173.47244582 37.54362526 146.66500789 25.32761451 122.6796875 10.48046875 C119.78694693 8.60044454 119.78694693 8.60044454 116.6875 7.6875 C116.6875 7.0275 116.6875 6.3675 116.6875 5.6875 C123.57079621 -0.07465326 131.20336961 -2.97794122 140.1875 -2.24609375 C147.66072366 -1.06094952 154.18910334 3.01549509 160.765625 6.5546875 C176.80843209 15.18208177 193.94858198 21.31716746 211.1875 27.0625 C211.92760315 27.30966766 212.6677063 27.55683533 213.43023682 27.81149292 C228.76442374 32.90562177 244.25048877 37.3888209 260.0625 40.75 C261.22426758 40.9989502 262.38603516 41.24790039 263.58300781 41.50439453 C276.52841978 44.19513883 289.57765601 45.99904031 302.6875 47.6875 C303.31425023 103.12765522 303.31425023 103.12765522 300.08886719 124.89355469 C299.70227572 127.58464515 299.3895698 130.27333608 299.1015625 132.9765625 C297.2593691 149.46210881 293.37613403 165.56633754 289.61279297 181.69775391 C288.86370474 184.91169958 288.14542103 188.13131146 287.44140625 191.35546875 C273.63411 252.74907275 240.06658783 311.83364054 198.6875 358.6875 C197.89085937 359.595 197.09421875 360.5025 196.2734375 361.4375 C184.05788308 375.05235942 171.22827244 388.54807784 156.6875 399.6875 C155.5649625 400.59557447 154.44537672 401.50730501 153.328125 402.421875 C130.13269258 421.36600449 105.24319321 436.88232041 78.6875 450.6875 C77.95370117 451.07147949 77.21990234 451.45545898 76.46386719 451.85107422 C65.775414 457.38058851 65.775414 457.38058851 59.6875 455.6875 C56.21478859 454.3203516 52.8603204 452.74683726 49.5 451.125 C48.4996875 450.64248779 47.499375 450.15997559 46.46875 449.6628418 C16.30211179 434.79572933 -12.16071825 415.6893287 -36.90625 392.8828125 C-38.24511868 391.66131218 -39.59217809 390.44809391 -40.96899414 389.26953125 C-46.64259746 384.40747876 -51.96767839 379.21848593 -57.24829102 373.93701172 C-58.73891615 372.44856763 -60.23737017 370.96832723 -61.73632812 369.48828125 C-68.04553922 363.21588207 -73.78657414 356.67220389 -79.3125 349.6875 C-80.31357454 348.46772258 -81.31710355 347.24995095 -82.32421875 346.03515625 C-95.02232255 330.52093135 -106.18862168 313.97943855 -116.3125 296.6875 C-116.69180664 296.04458008 -117.07111328 295.40166016 -117.46191406 294.73925781 C-143.58995812 250.24101185 -160.77367051 200.51452129 -169.3125 149.6875 C-169.47458954 148.72556732 -169.47458954 148.72556732 -169.63995361 147.74420166 C-175.22717389 114.40803115 -176.68133188 81.44129165 -176.3125 47.6875 C-175.49612061 47.57792969 -174.67974121 47.46835938 -173.83862305 47.35546875 C-123.68945587 40.49936865 -73.43981206 27.84030111 -28.38671875 4.12109375 C-27.5860498 3.7034375 -26.78538086 3.28578125 -25.96044922 2.85546875 C-24.45917039 2.064496 -22.96635319 1.25713156 -21.48486328 0.4296875 C-14.11839339 -3.46928352 -7.63170651 -3.42668676 0 0 Z " fill="#155791" transform="translate(448.3125,208.3125)"/>
<path d="M0 0 C0 0.66 0 1.32 0 2 C0.66 2 1.32 2 2 2 C2 9.59 2 17.18 2 25 C1.34 25 0.68 25 0 25 C0 18.4 0 11.8 0 5 C-4.28910118 9.26602771 -8.57654977 13.5335981 -12.86010742 17.80517578 C-14.31492017 19.25498917 -15.77063283 20.70390017 -17.22729492 22.15185547 C-19.33234551 24.24464643 -21.43403619 26.34076374 -23.53515625 28.4375 C-24.17711441 29.07429688 -24.81907257 29.71109375 -25.48048401 30.3671875 C-29.28434695 34.17058712 -32.89365762 38.08510987 -36.38938904 42.17407227 C-38.02511835 44.02847634 -39.73460582 45.76931255 -41.5 47.5 C-44.48893201 50.44264324 -47.24652298 53.52355707 -49.984375 56.69921875 C-52.44480754 59.50773574 -54.96996073 62.25441986 -57.5 65 C-64.57597424 72.69458665 -71.37850985 80.59588901 -78.1171875 88.5859375 C-79.97081032 90.78360868 -81.82979498 92.9764805 -83.6953125 95.1640625 C-93.63539169 106.83190422 -103.33536148 118.68945988 -112.625 130.8828125 C-114.96491878 133.95395589 -117.325175 137.00857328 -119.6875 140.0625 C-124.67994858 146.53568287 -129.57171101 153.08386324 -134.46704102 159.63061523 C-137.98178675 164.32627288 -141.5256602 168.99392762 -145.125 173.625 C-150.70222063 180.84312191 -156.00655471 188.2532958 -161.32226562 195.66503906 C-162.97518284 197.96546111 -164.63465422 200.26098095 -166.296875 202.5546875 C-172.60883299 211.26518953 -178.86476536 220.01208964 -185.05078125 228.8125 C-186.97491522 231.54949662 -188.90964615 234.27838319 -190.85546875 237 C-199.51988442 249.14514335 -207.7722936 261.55630119 -216 274 C-218.91834217 272.68516427 -220.94920929 271.28366724 -223.171875 268.98828125 C-224.03897095 268.10378296 -224.03897095 268.10378296 -224.92358398 267.20141602 C-225.82765991 266.26640259 -225.82765991 266.26640259 -226.75 265.3125 C-231.12311653 260.85807569 -235.51685015 256.54815945 -240.2734375 252.5 C-244.68876994 248.66405507 -248.6492107 244.44824015 -252.4375 240 C-255.38611835 236.56983995 -258.58414981 233.69802708 -262.03125 230.78125 C-264.03624666 228.9672054 -265.75444957 227.06292323 -267.5 225 C-270.39019657 221.59322983 -273.49511855 218.73193621 -276.8984375 215.84765625 C-279.20251105 213.8219559 -281.34751158 211.68577433 -283.5 209.5 C-287.5077457 205.45142837 -291.66876332 201.69617892 -296 198 C-297.13469893 197.01369269 -298.26875805 196.02664906 -299.40234375 195.0390625 C-300.64303501 193.96331769 -301.88392177 192.88779834 -303.125 191.8125 C-303.71112061 191.30098389 -304.29724121 190.78946777 -304.90112305 190.26245117 C-308.44792043 187.20469479 -312.04907133 184.51586491 -316 182 C-313.29920505 180.55199485 -310.81725659 179.59920929 -307.83203125 178.921875 C-307.02902588 178.73326904 -306.22602051 178.54466309 -305.39868164 178.3503418 C-304.5452417 178.152229 -303.69180176 177.95411621 -302.8125 177.75 C-295.16388505 175.92403917 -287.80697039 173.71161714 -280.4699707 170.87988281 C-273.7339083 168.33367966 -273.7339083 168.33367966 -270 169 C-267.67578125 170.65234375 -267.67578125 170.65234375 -265.3125 172.9375 C-264.44625 173.75863281 -263.58 174.57976562 -262.6875 175.42578125 C-261.3571875 176.70001953 -261.3571875 176.70001953 -260 178 C-258.27577128 179.54718738 -256.54673592 181.089038 -254.8125 182.625 C-251.32326006 185.76041685 -247.98057481 188.98955403 -244.6953125 192.3359375 C-242.31941849 194.66803622 -239.78378483 196.79544886 -237.25 198.953125 C-235.47975788 200.5635536 -233.83294352 202.1899459 -232.1875 203.921875 C-231.70120117 204.42944336 -231.21490234 204.93701172 -230.71386719 205.45996094 C-229.75032409 206.4736417 -228.79744684 207.49758648 -227.85644531 208.53222656 C-225.36903569 211.21092867 -225.36903569 211.21092867 -221.9765625 212.1875 C-218.97860709 210.38635683 -217.16495737 207.77098598 -215.125 205 C-214.15309243 203.72109517 -213.17903165 202.44382458 -212.203125 201.16796875 C-211.68685547 200.49040527 -211.17058594 199.8128418 -210.63867188 199.11474609 C-207.7976091 195.44828516 -204.8349585 191.88314215 -201.875 188.3125 C-200.67835849 186.86590769 -199.4817433 185.41929361 -198.28515625 183.97265625 C-197.72070801 183.29090332 -197.15625977 182.60915039 -196.57470703 181.90673828 C-194.47508831 179.36440925 -192.39353488 176.80755092 -190.3125 174.25 C-186.62152099 169.73043387 -182.86127598 165.27334338 -179.07861328 160.83056641 C-176.22453496 157.47183379 -173.44054851 154.06758757 -170.6875 150.625 C-166.402493 145.35173913 -161.80695987 140.40618061 -157.13549805 135.47705078 C-153.57893164 131.72145512 -150.13836958 127.88903439 -146.74609375 123.98461914 C-143.92334988 120.77627393 -140.99565115 117.66968532 -138.0625 114.5625 C-136.74340154 113.16284338 -135.42439425 111.76310085 -134.10546875 110.36328125 C-133.4304834 109.64736816 -132.75549805 108.93145508 -132.06005859 108.19384766 C-130.005895 106.00627785 -127.96437781 103.8075446 -125.92578125 101.60546875 C-118.81667797 93.94819571 -111.59371891 86.57428304 -103.83203125 79.578125 C-101.37527453 77.34162923 -99.01551289 75.05619661 -96.6875 72.6875 C-92.95931245 68.91299956 -89.03329053 65.44386055 -85 62 C-83.94635615 61.09405048 -82.89299323 60.18777417 -81.83984375 59.28125 C-78.83147938 56.69398879 -75.81674988 54.11427345 -72.79931641 51.53759766 C-71.6391774 50.54620614 -70.47992905 49.55377096 -69.32177734 48.56005859 C-61.05933686 41.47121784 -52.63277906 34.63315931 -44 28 C-43.0104834 27.23888916 -43.0104834 27.23888916 -42.00097656 26.46240234 C-34.73718073 20.89464245 -27.4746102 15.46392688 -19.671875 10.6640625 C-15.54611691 8.09451141 -11.54711553 5.3386919 -7.53125 2.6015625 C-4.97472186 0.98400612 -3.05831905 0 0 0 Z " fill="#FBFCFC" transform="translate(714,285)"/>
<path d="M0 0 C13.261875 -0.0825 26.52375 -0.165 40.1875 -0.25 C46.43143677 -0.30462402 46.43143677 -0.30462402 52.80151367 -0.36035156 C57.94787598 -0.37841797 57.94787598 -0.37841797 60.36933899 -0.3817749 C62.03381142 -0.38785287 63.69826805 -0.40178501 65.36262512 -0.42230225 C80.03753015 -0.59390928 93.64496093 0.54843601 105 11 C111.82311799 19.01468121 113.55198305 26.96162077 113.375 37.359375 C112.52771358 45.58511395 109.23215255 52.98205603 103.02734375 58.53515625 C97.81068143 62.30442093 92.35662718 64.9367919 86 66 C92.20426405 73.89484394 98.86255068 81.22490964 105.7421875 88.52734375 C114.68057598 98.02086397 114.68057598 98.02086397 118 103 C113.14394081 103.22359659 108.29091292 103.38627789 103.4309082 103.49438477 C101.78063749 103.53946707 100.1307228 103.60075755 98.48168945 103.67895508 C84.80324577 104.31103055 84.80324577 104.31103055 80.52783203 101.20263672 C78.74567817 98.89167419 77.38104578 96.56672159 76 94 C75.0144505 92.76271979 73.99469569 91.55165093 72.9375 90.375 C72.45023438 89.81296875 71.96296875 89.2509375 71.4609375 88.671875 C70.97882813 88.12015625 70.49671875 87.5684375 70 87 C69.01862338 85.8769273 68.03948619 84.75189412 67.0625 83.625 C66.55726807 83.05773193 66.05203613 82.49046387 65.53149414 81.90600586 C64 80 64 80 62.59155273 77.59594727 C60.09101875 73.57175616 58.44720441 71.3577529 53.72705078 70.19091797 C49.80097587 69.88914787 46.00093627 69.85676654 42.0625 69.9375 C37.421875 69.958125 32.78125 69.97875 28 70 C28 80.89 28 91.78 28 103 C18.76 103 9.52 103 0 103 C0 69.01 0 35.02 0 0 Z " fill="#268039" transform="translate(601,686)"/>
<path d="M0 0 C9.57 0 19.14 0 29 0 C33.20450331 4.80514664 37.25973446 9.51680606 41.125 14.5625 C46.20849924 21.11976416 51.58261287 27.39067617 57.0546875 33.625 C59.7584158 36.70586918 62.38920829 39.84007498 65 43 C69.15397979 41.44104721 71.46896671 38.40270036 74.1875 35.0625 C74.67017334 34.48129395 75.15284668 33.90008789 75.65014648 33.30126953 C78.64883096 29.68191218 81.60198986 26.02559346 84.5625 22.375 C88.42367165 17.62652139 92.48322325 13.09573436 96.640625 8.60546875 C99.17412456 5.80771344 101.58369145 2.89957027 104 0 C113.24 0 122.48 0 132 0 C132 33.99 132 67.98 132 103 C123.09 103 114.18 103 105 103 C104.67 81.55 104.34 60.1 104 38 C95.67526831 47.68741404 95.67526831 47.68741404 87.5 57.5 C86.78585937 58.36238281 86.07171875 59.22476563 85.3359375 60.11328125 C83.55713965 62.31149465 81.85378103 64.52815898 80.1640625 66.79296875 C72.91365499 76.24613591 72.91365499 76.24613591 68.03515625 78.16796875 C64.01218728 78.46044798 61.3257816 77.99769772 58.07421875 75.55078125 C56.18333519 73.47732962 54.61077491 71.29745446 53 69 C51.6162931 67.28182984 50.21958685 65.57407624 48.8125 63.875 C48.06226563 62.95203125 47.31203125 62.0290625 46.5390625 61.078125 C43.13778601 56.95473135 39.6560985 52.90317014 36.16137695 48.85888672 C35.67886475 48.29959473 35.19635254 47.74030273 34.69921875 47.1640625 C34.27471436 46.67373535 33.85020996 46.1834082 33.4128418 45.67822266 C31.56740396 43.48614736 29.79003583 41.23754478 28 39 C27.67 60.12 27.34 81.24 27 103 C18.09 103 9.18 103 0 103 C0 69.01 0 35.02 0 0 Z " fill="#0F6592" transform="translate(315,686)"/>
<path d="M0 0 C10.56 0 21.12 0 32 0 C33.093125 2.18625 34.18625 4.3725 35.3125 6.625 C35.695271 7.38981689 36.07804199 8.15463379 36.47241211 8.94262695 C38.53090876 13.05628549 40.58345239 17.17280812 42.62890625 21.29296875 C47.25152953 30.59220822 51.93005536 39.85202321 56.79931641 49.0246582 C59.63447775 54.37683852 62.42533315 59.75060572 65.1953125 65.13671875 C65.56826447 65.86188187 65.94121643 66.58704498 66.32546997 67.33418274 C68.19788698 70.97661308 70.06795572 74.62023599 71.93603516 78.26489258 C72.63940371 79.63505404 73.34301214 81.0050924 74.046875 82.375 C74.384841 83.03340378 74.72280701 83.69180756 75.0710144 84.37016296 C77.60720621 89.29014626 80.2532994 94.14210875 82.97753906 98.9609375 C84 101 84 101 84 103 C74.1 103 64.2 103 54 103 C52.515 100.256875 51.03 97.51375 49.5 94.6875 C49.03013672 93.82729248 48.56027344 92.96708496 48.07617188 92.08081055 C47.71072266 91.39801025 47.34527344 90.71520996 46.96875 90.01171875 C46.59169922 89.31522217 46.21464844 88.61872559 45.82617188 87.90112305 C45 86 45 86 45 83 C25.53 83 6.06 83 -14 83 C-14.66 84.98 -15.32 86.96 -16 89 C-16.54419827 90.23048087 -17.11582819 91.44958867 -17.7265625 92.6484375 C-18.00580566 93.20192871 -18.28504883 93.75541992 -18.57275391 94.32568359 C-18.91999512 95.00195801 -19.26723633 95.67823242 -19.625 96.375 C-20.73875 98.56125 -21.8525 100.7475 -23 103 C-32.9 103 -42.8 103 -53 103 C-49.875 96.75 -49.875 96.75 -48.74072266 94.48583984 C-46.40531315 89.82243484 -44.08473661 85.1519672 -41.7734375 80.4765625 C-36.02792532 68.88110371 -30.19924647 57.36754108 -23.91796875 46.04980469 C-15.56912551 30.90372201 -7.85825794 15.40415836 0 0 Z " fill="#16704A" transform="translate(509,686)"/>
<path d="M0 0 C-1.48008696 5.00113594 -3.6318336 9.32915597 -6.125 13.875 C-6.49753906 14.56335938 -6.87007813 15.25171875 -7.25390625 15.9609375 C-8.16499526 17.64294798 -9.08190315 19.32180436 -10 21 C-13.90418626 19.74680441 -17.70191276 18.32629724 -21.50341797 16.79150391 C-37.98569512 10.25744393 -58.01881999 7.71621533 -75 14 C-75.226875 15.258125 -75.45375 16.51625 -75.6875 17.8125 C-75.87892578 18.87404297 -75.87892578 18.87404297 -76.07421875 19.95703125 C-76.20434544 22.06622425 -76.20434544 22.06622425 -74.74414062 23.52832031 C-68.9282402 28.43568982 -59.93511751 28.74262563 -52.6875 29.5625 C-50.64306333 29.81244934 -48.59878978 30.06373681 -46.5546875 30.31640625 C-45.58885742 30.43387207 -44.62302734 30.55133789 -43.62792969 30.67236328 C-38.71855717 31.28443852 -33.85340259 32.04237796 -29 33 C-27.53626953 33.28617188 -27.53626953 33.28617188 -26.04296875 33.578125 C-15.4596245 35.91488394 -5.13322703 39.60579662 1 49 C1.598125 49.886875 2.19625 50.77375 2.8125 51.6875 C5.47227065 59.10686023 5.92261812 67.07377442 3.26171875 74.55078125 C-1.12050349 83.05744795 -8.04227436 88.89149124 -17 92 C-35.75324265 97.59669335 -54.71936192 98.88290628 -74 95 C-75.8871875 94.63261719 -75.8871875 94.63261719 -77.8125 94.2578125 C-88.28951984 92.02532122 -97.48781702 87.85027152 -107 83 C-105.32508169 78.11963459 -102.63208039 74.00847052 -99.875 69.6875 C-99.17310547 68.57665039 -99.17310547 68.57665039 -98.45703125 67.44335938 C-97.30835804 65.62658032 -96.15467631 63.81296963 -95 62 C-94.09121094 62.45890625 -93.18242187 62.9178125 -92.24609375 63.390625 C-73.32368491 72.71338516 -52.9422641 77.2274989 -32 72 C-27.86065342 70.35853498 -26.4676823 69.70152345 -24 66 C-23.49985047 63.54258463 -23.49985047 63.54258463 -24 61 C-27.00312393 57.2156338 -29.50021366 56.29512776 -34.1875 55.4375 C-35.13798218 55.26045532 -35.13798218 55.26045532 -36.10766602 55.07983398 C-42.5134725 53.95211948 -48.97669663 53.28843296 -55.4375 52.5625 C-89.4679206 48.68054882 -89.4679206 48.68054882 -99.5625 37.5 C-100.40357195 36.35376035 -101.21960927 35.18838448 -102 34 C-102.61875 33.13375 -103.2375 32.2675 -103.875 31.375 C-106.22585291 24.32244127 -106.2009823 15.6882167 -103.09765625 8.83203125 C-97.13212405 -1.12467551 -88.05327871 -7.071839 -77 -10 C-53.92607118 -15.78204599 -20.45616564 -13.63744376 0 0 Z " fill="#135E95" transform="translate(295,695)"/>
<path d="M0 0 C36.3 0 72.6 0 110 0 C110 7.26 110 14.52 110 22 C96.14 22 82.28 22 68 22 C68 48.73 68 75.46 68 103 C59.09 103 50.18 103 41 103 C41 76.27 41 49.54 41 22 C27.47 22 13.94 22 0 22 C0 14.74 0 7.48 0 0 Z " fill="#6EA81E" transform="translate(724,686)"/>
<path d="M0 0 C1.2068042 -0.00555908 2.4136084 -0.01111816 3.65698242 -0.0168457 C38.51356464 0.25996283 69.06215057 14.93715057 93.4375 39.3125 C93.1875 42.75 93.1875 42.75 92.4375 46.3125 C89.36239807 48.36256796 88.03814863 48.80558361 84.4375 48.16796875 C80.87003329 46.64204061 78.6156421 43.63506773 75.99609375 40.84765625 C64.91117895 29.86428265 49.7307952 22.88310881 35.125 17.9375 C34.42093018 17.69878174 33.71686035 17.46006348 32.99145508 17.21411133 C22.39871847 13.8167193 12.15288374 12.97099795 1.0625 13 C-0.16210938 12.98388672 -1.38671875 12.96777344 -2.6484375 12.95117188 C-11.0160235 12.94673989 -18.51341122 14.05610292 -26.5625 16.3125 C-27.37477051 16.53687744 -28.18704102 16.76125488 -29.02392578 16.99243164 C-46.06006703 21.94052506 -62.26741722 29.74791243 -74.80078125 42.609375 C-76.5625 44.3125 -76.5625 44.3125 -78.5625 44.3125 C-78.5625 44.9725 -78.5625 45.6325 -78.5625 46.3125 C-82.03292703 48.62611802 -83.48084173 48.82270728 -87.5625 48.3125 C-89.84785157 46.25568359 -90.47758109 44.97552074 -90.8671875 41.93359375 C-90.16229713 35.86972917 -83.22004375 31.68562696 -78.78515625 28.01171875 C-71.44850157 22.3098086 -63.71664734 17.70839697 -55.5625 13.3125 C-54.72203125 12.83941406 -53.8815625 12.36632812 -53.015625 11.87890625 C-45.591899 7.88055718 -37.6475568 5.5537253 -29.5625 3.3125 C-28.4590625 2.98894531 -27.355625 2.66539063 -26.21875 2.33203125 C-17.50268873 0.16319825 -8.94834918 0.03457587 0 0 Z " fill="#54BCE9" transform="translate(510.5625,117.6875)"/>
<path d="M0 0 C1.07636719 0.00322266 2.15273438 0.00644531 3.26171875 0.00976562 C4.38964844 0.01814453 5.51757812 0.02652344 6.6796875 0.03515625 C7.81535156 0.03966797 8.95101562 0.04417969 10.12109375 0.04882812 C12.93234388 0.0606401 15.7434898 0.07711118 18.5546875 0.09765625 C20.06850915 3.12529955 19.68453003 6.25667178 19.66821289 9.57666016 C19.66835892 10.34748428 19.66850494 11.11830841 19.6686554 11.91249084 C19.66795739 14.46642854 19.66017025 17.02029376 19.65234375 19.57421875 C19.65047917 21.34255941 19.64905546 23.11090058 19.64805603 24.87924194 C19.644234 29.53830384 19.63440638 34.19733467 19.62335205 38.85638428 C19.61313119 43.60867899 19.60855696 48.36097872 19.60351562 53.11328125 C19.59278384 62.44142211 19.57518957 71.76953174 19.5546875 81.09765625 C10.6446875 81.09765625 1.7346875 81.09765625 -7.4453125 81.09765625 C-7.4453125 54.69765625 -7.4453125 28.29765625 -7.4453125 1.09765625 C-4.83580014 -0.20709993 -2.91829965 -0.01535947 0 0 Z " fill="#177138" transform="translate(772.4453125,707.90234375)"/>
<path d="M0 0 C25.57298727 -0.76592363 47.55368878 8.43079768 67.46484375 24.15625 C68.13128906 24.67832031 68.79773438 25.20039063 69.484375 25.73828125 C71.98355049 27.75099923 73.66523475 29.45683649 75.46484375 32.15625 C74.89880601 38.72228774 74.89880601 38.72228774 73.46484375 40.15625 C70.40368937 40.57847819 68.42586982 40.79037174 65.46484375 40.15625 C63.62754448 38.72877437 62.23099872 37.08970102 60.6796875 35.35546875 C46.22455731 21.00231479 24.07503221 13.52909463 4.08984375 12.90625 C-17.68425416 13.17808643 -38.23367036 20.99700187 -53.91015625 36.21875 C-56.92813836 39.07238655 -58.80998233 40.74723808 -63.03515625 40.90625 C-66.53515625 40.15625 -66.53515625 40.15625 -68.53515625 37.15625 C-68.921875 34.765625 -68.921875 34.765625 -68.53515625 32.15625 C-55.20610522 13.98300661 -31.44762759 4.70233838 -10.09765625 0.69921875 C-6.73961106 0.22222369 -3.38697266 0.14970045 0 0 Z " fill="#55BDEA" transform="translate(508.53515625,142.84375)"/>
<path d="M0 0 C6.72676094 -0.09193751 13.45133351 -0.17154658 20.17822266 -0.21972656 C22.46540726 -0.23981517 24.75254068 -0.26709128 27.03955078 -0.30175781 C30.33118334 -0.35039558 33.62213557 -0.37299679 36.9140625 -0.390625 C37.93303619 -0.41127014 38.95200989 -0.43191528 40.00186157 -0.45318604 C46.01707506 -0.45507803 49.40824753 0.01303294 54 4 C56.22793239 6.44353875 56.94925269 8.06809487 57.12890625 11.3671875 C56.90993497 15.83951002 56.47850467 18.36199377 53.75 22 C47.75916841 26.35696843 42.63064293 26.27092624 35.44921875 26.1953125 C34.43527542 26.1924826 33.42133209 26.18965271 32.37666321 26.18673706 C29.14682073 26.17556625 25.91725829 26.15046711 22.6875 26.125 C20.49414464 26.1149662 18.30078492 26.10584105 16.10742188 26.09765625 C10.73808727 26.07734095 5.36935611 26.03818586 0 26 C0 17.42 0 8.84 0 0 Z " fill="#FBFDFB" transform="translate(629,708)"/>
<path d="M0 0 C2.66110519 2.26309641 4.1180453 3.88576861 4.55859375 7.41015625 C4.24609375 9.91015625 4.24609375 9.91015625 3.12109375 11.72265625 C0.37553048 13.46151299 -1.55025463 13.21320438 -4.75390625 12.91015625 C-7.17578125 11.37109375 -7.17578125 11.37109375 -9.50390625 9.28515625 C-22.29245585 -1.51830505 -36.45598556 -7.25362799 -53.44140625 -5.87109375 C-63.5202815 -4.19128121 -72.49179828 0.26647176 -80.59765625 6.359375 C-82.58967364 7.79203968 -84.53068219 8.88444151 -86.75390625 9.91015625 C-86.75390625 10.57015625 -86.75390625 11.23015625 -86.75390625 11.91015625 C-89.55260652 13.30950638 -91.65889417 13.1628103 -94.75390625 12.91015625 C-96.62890625 11.72265625 -96.62890625 11.72265625 -97.75390625 9.91015625 C-98.15720459 6.76757181 -98.07116671 5.36678177 -96.2421875 2.734375 C-66.88734966 -26.093446 -31.10437138 -23.60402651 0 0 Z " fill="#56BEEA" transform="translate(558.75390625,187.08984375)"/>
<path d="M0 0 C2.805 -0.0825 5.61 -0.165 8.5 -0.25 C9.8003418 -0.30462402 9.8003418 -0.30462402 11.12695312 -0.36035156 C16.90584662 -0.44155995 21.18155336 0.75959464 26 4 C29.56444501 7.65355613 30.26945797 10.54612105 30.4375 15.5 C30.23410526 20.04864595 29.82720064 23.28929916 27 27 C21.24145184 31.83848601 16.34345252 32.67619659 9 32.3125 C6.03 32.209375 3.06 32.10625 0 32 C0 21.44 0 10.88 0 0 Z " fill="#3C3C3D" transform="translate(475,813)"/>
<path d="M0 0 C3.5 0.125 3.5 0.125 4.5 1.125 C4.62798061 3.84533201 4.68522499 6.5290837 4.6875 9.25 C4.69974609 9.99765625 4.71199219 10.7453125 4.72460938 11.515625 C4.72654297 12.25554687 4.72847656 12.99546875 4.73046875 13.7578125 C4.73457764 14.42699707 4.73868652 15.09618164 4.74291992 15.78564453 C4.41223841 18.97015737 3.37955702 22.04655044 2.5 25.125 C-8.06 25.125 -18.62 25.125 -29.5 25.125 C-31.1242814 19.44001511 -31.74997049 16.00867308 -31.6875 10.3125 C-31.68105469 9.00667969 -31.67460937 7.70085937 -31.66796875 6.35546875 C-31.5 3.125 -31.5 3.125 -30.5 1.125 C-26.87501666 1.09606068 -23.25006287 1.07822208 -19.625 1.0625 C-18.07619141 1.04993164 -18.07619141 1.04993164 -16.49609375 1.03710938 C-15.50996094 1.03388672 -14.52382813 1.03066406 -13.5078125 1.02734375 C-12.14100342 1.01948853 -12.14100342 1.01948853 -10.74658203 1.01147461 C-8.5 1.125 -8.5 1.125 -6.5 2.125 C-6.5 9.055 -6.5 15.985 -6.5 23.125 C-5.18 23.125 -3.86 23.125 -2.5 23.125 C-2.5 16.195 -2.5 9.265 -2.5 2.125 C-3.16 1.795 -3.82 1.465 -4.5 1.125 C-3.5 0.125 -3.5 0.125 0 0 Z " fill="#1E99D4" transform="translate(385.5,316.875)"/>
<path d="M0 0 C2.72652802 3.35168269 4.63446838 6.9942479 6.5390625 10.84765625 C7.02854874 11.82731606 7.02854874 11.82731606 7.52792358 12.82676697 C8.21387531 14.20168016 8.8978916 15.57756046 9.58007812 16.9543457 C10.6242986 19.06108491 11.67491881 21.16453623 12.7265625 23.26757812 C13.3936075 24.60658243 14.0602868 25.94576898 14.7265625 27.28515625 C15.04009674 27.91333755 15.35363098 28.54151886 15.67666626 29.18873596 C16.95441961 31.77229912 18.0869495 34.26084851 19 37 C6.79 37 -5.42 37 -18 37 C-12.16080554 24.58012608 -6.19005316 12.24840306 0 0 Z " fill="#F9FBFA" transform="translate(524,711)"/>
<path d="M0 0 C2.31 0 4.62 0 7 0 C8.5066972 2.7881022 10.00419804 5.58103958 11.5 8.375 C11.92925781 9.1690625 12.35851562 9.963125 12.80078125 10.78125 C13.40986328 11.92207031 13.40986328 11.92207031 14.03125 13.0859375 C14.59682617 14.1385376 14.59682617 14.1385376 15.17382812 15.21240234 C16 17 16 17 16 19 C16.66 19 17.32 19 18 19 C18.25523437 18.15179687 18.51046875 17.30359375 18.7734375 16.4296875 C20.08494484 12.76247907 21.74643123 9.53425443 23.625 6.125 C24.25664063 4.97257813 24.88828125 3.82015625 25.5390625 2.6328125 C26.02117188 1.76398437 26.50328125 0.89515625 27 0 C29.31 0 31.62 0 34 0 C34 10.56 34 21.12 34 32 C32.02 32 30.04 32 28 32 C27.67 26.06 27.34 20.12 27 14 C24.36 18.95 21.72 23.9 19 29 C17.68 29 16.36 29 15 29 C11.04 22.07 11.04 22.07 7 15 C6.67 20.61 6.34 26.22 6 32 C4.02 32 2.04 32 0 32 C0 21.44 0 10.88 0 0 Z " fill="#3D3C3D" transform="translate(801,813)"/>
<path d="M0 0 C7 0 7 0 8.84863281 1.40527344 C9.29561523 2.05012695 9.74259766 2.69498047 10.203125 3.359375 C10.7084375 4.06320312 11.21375 4.76703125 11.734375 5.4921875 C12.23453125 6.23726562 12.7346875 6.98234375 13.25 7.75 C13.765625 8.47960937 14.28125 9.20921875 14.8125 9.9609375 C15.77521675 11.3256133 16.72853221 12.6970083 17.66894531 14.07714844 C19.06102277 16.08815395 20.53250955 18.04334607 22 20 C22.33 13.4 22.66 6.8 23 0 C25.31 0 27.62 0 30 0 C30 10.56 30 21.12 30 32 C22 32 22 32 19.91430664 30.48706055 C19.41793701 29.79394775 18.92156738 29.10083496 18.41015625 28.38671875 C17.85392578 27.63326172 17.29769531 26.87980469 16.72460938 26.10351562 C16.17611328 25.30623047 15.62761719 24.50894531 15.0625 23.6875 C14.48693359 22.90181641 13.91136719 22.11613281 13.31835938 21.30664062 C9.20427524 15.61282571 9.20427524 15.61282571 8 12 C7.34 12 6.68 12 6 12 C6 18.6 6 25.2 6 32 C4.02 32 2.04 32 0 32 C0 21.44 0 10.88 0 0 Z " fill="#3E3E3E" transform="translate(437,813)"/>
<path d="M0 0 C7 0 7 0 9.66015625 2.5625 C10.4840245 3.69184749 11.28441236 4.8386369 12.0625 6 C12.45759766 6.55300781 12.85269531 7.10601563 13.25976562 7.67578125 C14.51983001 9.44108885 15.75957232 11.22083943 17 13 C18.98 15.64 20.96 18.28 23 21 C23.33 14.4 23.66 7.8 24 1 C25.98 1 27.96 1 30 1 C30 11.23 30 21.46 30 32 C23 32 23 32 20.3046875 29.62109375 C19.47301116 28.5768779 18.66337865 27.51477962 17.875 26.4375 C16.66457031 24.88869141 16.66457031 24.88869141 15.4296875 23.30859375 C12.92260085 19.89460276 10.46192753 16.44669854 8 13 C7.67 19.27 7.34 25.54 7 32 C4.69 32 2.38 32 0 32 C0 21.44 0 10.88 0 0 Z " fill="#3F3E3F" transform="translate(225,813)"/>
<path d="M0 0 C7 0 7 0 9.73046875 2.66796875 C10.57256136 3.82468936 11.3911865 4.99880014 12.1875 6.1875 C13.01408605 7.34782502 13.84090586 8.50798356 14.66796875 9.66796875 C15.05645996 10.23306152 15.44495117 10.7981543 15.84521484 11.38037109 C16.92147724 12.88986893 18.10818111 14.31890485 19.30078125 15.73828125 C21 18 21 18 21 21 C21.66 21 22.32 21 23 21 C23 14.07 23 7.14 23 0 C24.98 0 26.96 0 29 0 C29 10.23 29 20.46 29 31 C22 31 22 31 19.55859375 28.875 C18.85863281 27.92625 18.15867187 26.9775 17.4375 26 C16.6846875 25.00355469 15.931875 24.00710938 15.15625 22.98046875 C14.4446875 21.99691406 13.733125 21.01335938 13 20 C11.81354822 18.43670391 10.62620807 16.87408113 9.4375 15.3125 C8.633125 14.219375 7.82875 13.12625 7 12 C6.67 18.27 6.34 24.54 6 31 C4.02 31 2.04 31 0 31 C0 20.77 0 10.54 0 0 Z " fill="#393838" transform="translate(545,814)"/>
<path d="M0 0 C2.31 0 4.62 0 7 0 C12.0402298 10.52473517 16.64118563 21.1758318 21 32 C18.36 32 15.72 32 13 32 C12.34 29.69 11.68 27.38 11 25 C8.55764178 25.00600826 6.12806579 25.05328457 3.6875 25.125 C2.99720703 25.12242187 2.30691406 25.11984375 1.59570312 25.1171875 C-0.70700692 25.14483876 -0.70700692 25.14483876 -4 26 C-6.0645852 28.91718568 -6.0645852 28.91718568 -7 32 C-9.31 32 -11.62 32 -14 32 C-9.64118563 21.1758318 -5.0402298 10.52473517 0 0 Z " fill="#3F3F3F" transform="translate(520,813)"/>
<path d="M0 0 C1.134375 0.020625 2.26875 0.04125 3.4375 0.0625 C5.29354731 4.29632315 7.14483366 8.53218307 8.99169922 12.77001953 C9.62092077 14.21199913 10.25144967 15.65340897 10.88330078 17.09423828 C11.79021331 19.16291003 12.69243595 21.23357151 13.59375 23.3046875 C13.87810913 23.95057831 14.16246826 24.59646912 14.45544434 25.26193237 C16.4375 29.83475659 16.4375 29.83475659 16.4375 32.0625 C14.1275 32.0625 11.8175 32.0625 9.4375 32.0625 C9.10105469 31.09054687 8.76460938 30.11859375 8.41796875 29.1171875 C6.69725855 25.68341276 6.69725855 25.68341276 2.86328125 25.2578125 C1.49301014 25.20485516 0.12128449 25.18237849 -1.25 25.1875 C-2.3028418 25.1565625 -2.3028418 25.1565625 -3.37695312 25.125 C-5.10495468 25.07797955 -6.83386406 25.06675249 -8.5625 25.0625 C-8.706875 25.84625 -8.85125 26.63 -9 27.4375 C-9.5625 30.0625 -9.5625 30.0625 -10.5625 32.0625 C-12.8725 32.0625 -15.1825 32.0625 -17.5625 32.0625 C-15.34870166 24.96661659 -12.55005765 18.3078699 -9.4375 11.5625 C-8.98246094 10.5621875 -8.52742188 9.561875 -8.05859375 8.53125 C-4.1859268 0.07343731 -4.1859268 0.07343731 0 0 Z " fill="#3F3F40" transform="translate(331.5625,812.9375)"/>
<path d="M0 0 C7.59 0 15.18 0 23 0 C23 7.59 23 15.18 23 23 C15.41 23 7.82 23 0 23 C0 15.41 0 7.82 0 0 Z " fill="#1A90CD" transform="translate(356,347)"/>
<path d="M0 0 C7.92 0 15.84 0 24 0 C24 1.98 24 3.96 24 6 C18.39 6 12.78 6 7 6 C7 8.31 7 10.62 7 13 C11.95 13 16.9 13 22 13 C22 14.98 22 16.96 22 19 C17.05 19 12.1 19 7 19 C7 21.31 7 23.62 7 26 C12.61 26 18.22 26 24 26 C24 27.98 24 29.96 24 32 C16.08 32 8.16 32 0 32 C0 21.44 0 10.88 0 0 Z " fill="#474747" transform="translate(615,813)"/>
<path d="M0 0 C7.92 0 15.84 0 24 0 C24 1.98 24 3.96 24 6 C18.39 6 12.78 6 7 6 C7 8.31 7 10.62 7 13 C11.95 13 16.9 13 22 13 C22 14.98 22 16.96 22 19 C17.05 19 12.1 19 7 19 C7 21.31 7 23.62 7 26 C12.61 26 18.22 26 24 26 C24 27.98 24 29.96 24 32 C16.08 32 8.16 32 0 32 C0 21.44 0 10.88 0 0 Z " fill="#434343" transform="translate(407,813)"/>
<path d="M0 0 C7.59 0 15.18 0 23 0 C23 1.98 23 3.96 23 6 C17.72 6 12.44 6 7 6 C7 8.31 7 10.62 7 13 C11.62 13 16.24 13 21 13 C21 14.98 21 16.96 21 19 C16.38 19 11.76 19 7 19 C7 21.31 7 23.62 7 26 C12.61 26 18.22 26 24 26 C24 27.98 24 29.96 24 32 C16.08 32 8.16 32 0 32 C0 21.44 0 10.88 0 0 Z " fill="#404040" transform="translate(771,813)"/>
<path d="M0 0 C1.13050781 -0.01417969 2.26101563 -0.02835938 3.42578125 -0.04296875 C6.61954843 0.18269863 8.8151429 0.82407346 11.6875 2.1875 C11.18146008 4.35624252 10.68766187 6.18717627 9.6875 8.1875 C9.0275 8.0225 8.3675 7.8575 7.6875 7.6875 C3.95650206 7.06566701 0.46876622 7.12341074 -3.3125 7.1875 C-3.6425 8.1775 -3.9725 9.1675 -4.3125 10.1875 C-3.40886719 10.51363281 -2.50523437 10.83976563 -1.57421875 11.17578125 C0.19501953 11.83126953 0.19501953 11.83126953 2 12.5 C3.17175781 12.92925781 4.34351563 13.35851562 5.55078125 13.80078125 C8.35476254 15.04039938 9.89801803 15.75847808 11.6875 18.1875 C12.6831513 22.02786931 13.08926584 24.25709489 11.5 27.9375 C9.14170842 30.86503438 7.16945174 32.9077438 3.390625 33.62109375 C-2.93731381 33.63117009 -6.86308544 32.4167827 -12.3125 29.1875 C-11.80646008 27.01875748 -11.31266187 25.18782373 -10.3125 23.1875 C-9.69375 23.5175 -9.075 23.8475 -8.4375 24.1875 C-4.05038488 25.59137684 0.11901427 25.34717523 4.6875 25.1875 C5.0175 23.8675 5.3475 22.5475 5.6875 21.1875 C4.95144531 21.00574219 4.21539063 20.82398438 3.45703125 20.63671875 C-8.78139952 17.48415072 -8.78139952 17.48415072 -12.3125 12.1875 C-12.82085292 8.2901276 -12.64212183 6.68193274 -10.4375 3.375 C-7.01162422 -0.15163684 -4.81734468 0.02727828 0 0 Z " fill="#434242" transform="translate(725.3125,812.8125)"/>
<path d="M0 0 C1.98 0 3.96 0 6 0 C6.02187378 0.86951294 6.02187378 0.86951294 6.04418945 1.7565918 C6.11898528 4.40087553 6.21553898 7.04394002 6.3125 9.6875 C6.33505859 10.59951172 6.35761719 11.51152344 6.38085938 12.45117188 C6.60139182 19.24993456 6.60139182 19.24993456 10 25 C14.6037951 25.67623951 14.6037951 25.67623951 18.68676758 23.7878418 C20.42904107 21.41590115 20.42711858 19.8216971 20.51171875 16.89453125 C20.54716797 15.91162109 20.58261719 14.92871094 20.61914062 13.91601562 C20.64169922 12.89185547 20.66425781 11.86769531 20.6875 10.8125 C20.72166016 9.77673828 20.75582031 8.74097656 20.79101562 7.67382812 C20.87352642 5.1159934 20.94266572 2.55850277 21 0 C23.31 0 25.62 0 28 0 C28.0878954 3.35399849 28.14068879 6.7076964 28.1875 10.0625 C28.21263672 11.00544922 28.23777344 11.94839844 28.26367188 12.91992188 C28.33677185 19.91315302 27.72618422 25.04014285 22.8125 30.375 C17.87798163 33.22605506 13.69840417 33.28306736 8.25 32.375 C3.9465482 30.55430885 2.05712266 28.11424532 0 24 C-0.08471364 22.18658158 -0.10721083 20.37005839 -0.09765625 18.5546875 C-0.09443359 17.47832031 -0.09121094 16.40195312 -0.08789062 15.29296875 C-0.07951172 14.16503906 -0.07113281 13.03710938 -0.0625 11.875 C-0.05798828 10.73933594 -0.05347656 9.60367188 -0.04882812 8.43359375 C-0.03701615 5.62234362 -0.02054507 2.8111977 0 0 Z " fill="#3F3E3F" transform="translate(190,813)"/>
<path d="M0 0 C1.14210938 -0.01417969 2.28421875 -0.02835938 3.4609375 -0.04296875 C6.46436816 0.17579966 8.10425934 0.61669363 10.625 2.1875 C10.295 3.8375 9.965 5.4875 9.625 7.1875 C8.635 7.5175 7.645 7.8475 6.625 8.1875 C5.965 7.8575 5.305 7.5275 4.625 7.1875 C3.08476004 7.11799459 1.54165012 7.10297643 0 7.125 C-0.81726563 7.13402344 -1.63453125 7.14304687 -2.4765625 7.15234375 C-3.10304688 7.16394531 -3.72953125 7.17554688 -4.375 7.1875 C-4.37502231 9.13362462 -4.37502231 9.13362462 -3.375 11.1875 C-0.44318193 12.67033712 -0.44318193 12.67033712 3.0625 13.75 C9.41868818 15.87803227 9.41868818 15.87803227 11.625 19.1875 C12.16880665 26.03946375 12.16880665 26.03946375 10.5 29.5625 C6.55413495 32.98224971 2.67579525 33.37390241 -2.375 33.0625 C-7.05168019 32.4902778 -9.75083068 31.14405919 -13.375 28.1875 C-11.625 24.3125 -11.625 24.3125 -9.375 23.1875 C-8.79234375 23.49429688 -8.2096875 23.80109375 -7.609375 24.1171875 C-4.79918778 25.46332613 -2.7242465 25.38629158 0.375 25.3125 C1.35984375 25.29445313 2.3446875 25.27640625 3.359375 25.2578125 C4.10703125 25.23460937 4.8546875 25.21140625 5.625 25.1875 C5.03597156 23.19084554 5.03597156 23.19084554 3.625 21.1875 C0.90337751 19.97669311 0.90337751 19.97669311 -2.25 19.1875 C-6.72029411 17.95734536 -9.46014295 16.88287565 -12.375 13.1875 C-12.99484499 8.92606568 -12.86811964 6.94361678 -10.5 3.3125 C-7.03906434 -0.14843566 -4.80320188 0.02698428 0 0 Z " fill="#3F3E3E" transform="translate(668.375,812.8125)"/>
<path d="M0 0 C2.31 0 4.62 0 7 0 C7.103125 1.11375 7.20625 2.2275 7.3125 3.375 C7.6528125 5.169375 7.6528125 5.169375 8 7 C8.99 7.66 9.98 8.32 11 9 C11.331238 11.58248385 11.51203417 13.97432401 11.5625 16.5625 C11.62497769 19.06854947 11.76672898 21.49898032 12 24 C12.66 24.33 13.32 24.66 14 25 C14 26.32 14 27.64 14 29 C12.948125 29.226875 11.89625 29.45375 10.8125 29.6875 C6.7884714 30.84999715 4.674843 32.73074744 2 36 C0.20679176 39.16645474 0.20679176 39.16645474 -1 42 C-5.87362847 41.54663921 -8.39042389 40.2910841 -12 37 C-11.43790555 33.56086948 -10.47112228 32.19798944 -7.75 30.0625 C-6.81220703 29.28326172 -6.81220703 29.28326172 -5.85546875 28.48828125 C-4.27494138 27.22053193 -2.67101058 25.98205066 -1.0625 24.75 C1.98618437 20.68508751 1.42925095 16.91253864 1 12 C-0.32 11.67 -1.64 11.34 -3 11 C-3 10.01 -3 9.02 -3 8 C-2.34 7.67 -1.68 7.34 -1 7 C-0.59270772 4.67843403 -0.25561323 2.3431213 0 0 Z " fill="#1A8CC8" transform="translate(403,326)"/>
<path d="M0 0 C2.76669655 1.0300471 3.86757284 1.86757284 6 4 C6 4.99 6 5.98 6 7 C4.25 8.125 4.25 8.125 2 9 C0 8 0 8 -2 7 C-5.86488125 6.49692661 -8.97001814 6.44539439 -12.4375 8.3125 C-14.76903243 10.83055502 -15.00043361 13.00390248 -15.375 16.375 C-15.28088833 20.08707343 -15.28088833 20.08707343 -13 22.9375 C-9.25298866 25.5135703 -6.35898664 25.67126695 -2 25 C1.36821272 24.10202887 1.36821272 24.10202887 4 23 C5.5 24.375 5.5 24.375 7 26 C7 26.66 7 27.32 7 28 C1.64524942 31.39984164 -2.45180134 33.9701035 -9 33 C-14.95684815 31.04861871 -18.64792494 28.24810366 -22.3125 23.1875 C-23.84083392 18.32461934 -23.33707973 14.15003673 -21.9375 9.375 C-16.6228888 0.11729016 -10.52510162 -1.60575268 0 0 Z " fill="#424243" transform="translate(603,813)"/>
<path d="M0 0 C3.97921094 -0.02682614 7.95824341 -0.04675393 11.9375 -0.0625 C13.07380859 -0.07087891 14.21011719 -0.07925781 15.38085938 -0.08789062 C16.46044922 -0.09111328 17.54003906 -0.09433594 18.65234375 -0.09765625 C20.15269165 -0.10551147 20.15269165 -0.10551147 21.68334961 -0.11352539 C24 0 24 0 25 1 C25.07325436 3.6986905 25.09222351 6.36502556 25.0625 9.0625 C25.041875 11.681875 25.02125 14.30125 25 17 C16.75 17 8.5 17 0 17 C0 11.39 0 5.78 0 0 Z " fill="#167EBA" transform="translate(373,414)"/>
<path d="M0 0 C5.01805172 -1.05643194 5.01805172 -1.05643194 8 0 C10.2592432 2.9496889 11.88659206 5.96054933 13.5546875 9.27734375 C14.71522877 12.09941708 14.71522877 12.09941708 17 13 C17.226875 12.34 17.45375 11.68 17.6875 11 C21.19187633 2.98999697 21.19187633 2.98999697 24 0 C27.8125 -0.5 27.8125 -0.5 31 0 C29.73655877 3.70057104 27.94979309 6.59346725 25.67358398 9.75927734 C20.50207316 17.04208836 18.62091896 22.87172849 19 32 C16.69 32 14.38 32 12 32 C12.05542969 31.35417969 12.11085938 30.70835937 12.16796875 30.04296875 C12.24161871 19.27534423 6.61009883 11.49525728 0.99389648 2.66723633 C0 1 0 1 0 0 Z " fill="#404040" transform="translate(681,813)"/>
<path d="M0 0 C7.26 0 14.52 0 22 0 C22 4.95 22 9.9 22 15 C13.585 15.495 13.585 15.495 5 16 C5 16.66 5 17.32 5 18 C3.35 18 1.7 18 0 18 C0 12.06 0 6.12 0 0 Z " fill="#187EBA" transform="translate(379,438)"/>
<path d="M0 0 C7.59 0 15.18 0 23 0 C23 4.95 23 9.9 23 15 C15.41 15 7.82 15 0 15 C0 10.05 0 5.1 0 0 Z " fill="#198BC7" transform="translate(356,375)"/>
<path d="M0 0 C8.91 0 17.82 0 27 0 C27 1.98 27 3.96 27 6 C23.7 6 20.4 6 17 6 C17 14.58 17 23.16 17 32 C14.69 32 12.38 32 10 32 C10 23.42 10 14.84 10 6 C6.7 6 3.4 6 0 6 C0 4.02 0 2.04 0 0 Z " fill="#434243" transform="translate(347,813)"/>
<path d="M0 0 C8.91 0 17.82 0 27 0 C27 1.98 27 3.96 27 6 C23.7 6 20.4 6 17 6 C17 14.58 17 23.16 17 32 C14.69 32 12.38 32 10 32 C10 23.42 10 14.84 10 6 C6.7 6 3.4 6 0 6 C0 4.02 0 2.04 0 0 Z " fill="#454444" transform="translate(274,813)"/>
<path d="M0 0 C8.58 0 17.16 0 26 0 C26 1.98 26 3.96 26 6 C23.03 6 20.06 6 17 6 C17 14.58 17 23.16 17 32 C14.69 32 12.38 32 10 32 C10 23.42 10 14.84 10 6 C6.7 6 3.4 6 0 6 C0 4.02 0 2.04 0 0 Z " fill="#404040" transform="translate(740,813)"/>
<path d="M0 0 C10.56 0 21.12 0 32 0 C32 3.63 32 7.26 32 11 C28.37595821 11.38807696 24.75146907 11.76100496 21.125 12.125 C20.09246094 12.23714844 19.05992187 12.34929687 17.99609375 12.46484375 C17.00996094 12.56152344 16.02382813 12.65820312 15.0078125 12.7578125 C13.64100342 12.89920654 13.64100342 12.89920654 12.24658203 13.04345703 C10 13 10 13 8 11 C5.63490639 10.69940057 3.25558119 10.50484988 0.875 10.375 C-0.40632813 10.30023438 -1.68765625 10.22546875 -3.0078125 10.1484375 C-4.48894531 10.07496094 -4.48894531 10.07496094 -6 10 C-6 9.67 -6 9.34 -6 9 C-1.38 9 3.24 9 8 9 C8 8.01 8 7.02 8 6 C5.69 5.67 3.38 5.34 1 5 C0.67 3.35 0.34 1.7 0 0 Z " fill="#1885C1" transform="translate(356,396)"/>
<path d="M0 0 C8.58 0 17.16 0 26 0 C26 1.98 26 3.96 26 6 C22.7 6 19.4 6 16 6 C16 14.58 16 23.16 16 32 C14.02 32 12.04 32 10 32 C10 23.42 10 14.84 10 6 C6.7 6 3.4 6 0 6 C0 4.02 0 2.04 0 0 Z " fill="#393939" transform="translate(376,813)"/>
<path d="M0 0 C10.26923077 0 10.26923077 0 15 3 C17.46057182 5.46057182 17.37747115 6.40721905 17.5 9.8125 C17.39076821 13.7850878 17.14739126 14.80082262 14.6875 18.125 C10.25528798 21.16880826 5.13451038 20.3130799 0 20 C0 13.4 0 6.8 0 0 Z " fill="#F5F5F5" transform="translate(481,819)"/>
<path d="M0 0 C5.61 0 11.22 0 17 0 C16.90234375 3.28776042 16.8046875 6.57552083 16.70703125 9.86328125 C16.73031532 12.95089569 16.73031532 12.95089569 18.32421875 14.85546875 C20.114358 16.19029549 20.114358 16.19029549 23 17 C23 17.66 23 18.32 23 19 C21.80375 19.4125 20.6075 19.825 19.375 20.25 C16.53453743 21.30258276 14.1116115 22.45795092 11.625 24.1875 C9 26 9 26 7 26 C7.2165625 24.9790625 7.2165625 24.9790625 7.4375 23.9375 C7.623125 22.968125 7.80875 21.99875 8 21 C8.268125 19.865625 8.53625 18.73125 8.8125 17.5625 C9.11385691 11.83671872 5.76094313 8.8929129 2.25 4.75 C0 2 0 2 0 0 Z " fill="#1579B6" transform="translate(603,278)"/>
<path d="M0 0 C1.5078125 1.64453125 1.5078125 1.64453125 3.125 3.8125 C3.66382813 4.52019531 4.20265625 5.22789062 4.7578125 5.95703125 C6 8 6 8 6 11 C4.04109119 12.39300182 2.0360882 13.72245446 0 15 C-2.52736209 17.16188571 -3.6092157 19.05534084 -4.6875 22.1875 C-5.06455078 23.26064453 -5.06455078 23.26064453 -5.44921875 24.35546875 C-5.63097656 24.89816406 -5.81273437 25.44085938 -6 26 C-8.31 26.33 -10.62 26.66 -13 27 C-13 22.71 -13 18.42 -13 14 C-10.69 13.34 -8.38 12.68 -6 12 C-5.06934867 9.39417629 -4.85082593 8.35801776 -5.9375 5.75 C-6.288125 5.1725 -6.63875 4.595 -7 4 C-2.25 0 -2.25 0 0 0 Z " fill="#1B81BD" transform="translate(421,423)"/>
<path d="M0 0 C5.13839356 1.71279785 7.49213501 6.3795985 10 11 C11.05411455 14.64815297 11.64811637 18.22263695 12 22 C11.2471875 21.65839844 10.494375 21.31679688 9.71875 20.96484375 C6.91792551 19.72610695 6.91792551 19.72610695 3.5 20.5625 C0 21 0 21 -2.9375 20.25 C-5.55085938 17.3990625 -5.30272782 16.10899276 -5.3125 12.3125 C-5.23205586 10.54043055 -5.13513292 8.7687398 -5 7 C-4.34 6.67 -3.68 6.34 -3 6 C-2.835 5.175 -2.67 4.35 -2.5 3.5 C-2.335 2.675 -2.17 1.85 -2 1 C-1.34 0.67 -0.68 0.34 0 0 Z " fill="#1982BF" transform="translate(400,387)"/>
<path d="M0 0 C2.31 0 4.62 0 7 0 C7 10.56 7 21.12 7 32 C4.69 32 2.38 32 0 32 C0 21.44 0 10.88 0 0 Z " fill="#484747" transform="translate(263,813)"/>
<path d="M0 0 C3.5 0.125 3.5 0.125 4.5 1.125 C4.62798061 3.84533201 4.68522499 6.5290837 4.6875 9.25 C4.69974609 9.99765625 4.71199219 10.7453125 4.72460938 11.515625 C4.73746182 16.43382635 4.06530328 20.46002501 2.5 25.125 C-0.8 25.125 -4.1 25.125 -7.5 25.125 C-7.5 17.535 -7.5 9.945 -7.5 2.125 C-7.17 2.125 -6.84 2.125 -6.5 2.125 C-6.5 9.055 -6.5 15.985 -6.5 23.125 C-5.18 23.125 -3.86 23.125 -2.5 23.125 C-2.5 16.195 -2.5 9.265 -2.5 2.125 C-3.16 1.795 -3.82 1.465 -4.5 1.125 C-3.5 0.125 -3.5 0.125 0 0 Z " fill="#1A8BC7" transform="translate(385.5,316.875)"/>
<path d="M0 0 C6.27 0 12.54 0 19 0 C17.00227689 4.99430778 15.31788912 8.72860539 11 12 C6.4683912 13.26856856 2.4700208 13.49000693 -2 12 C-2 11.01 -2 10.02 -2 9 C-1.34 9 -0.68 9 0 9 C0 6.03 0 3.06 0 0 Z " fill="#0F68A5" transform="translate(633,312)"/>
<path d="M0 0 C1.41655793 -0.0272415 2.83327045 -0.04650467 4.25 -0.0625 C5.43335938 -0.07990234 5.43335938 -0.07990234 6.640625 -0.09765625 C8.90691002 -0.00385306 10.8288895 0.36758937 13 1 C13.61002179 8.07625272 13.61002179 8.07625272 10.8125 12.3125 C8.27118236 14.74087019 6.20218229 16.56744477 3 18 C2.01 17.67 1.02 17.34 0 17 C-0.19493195 14.72979256 -0.38070418 12.45879711 -0.5625 10.1875 C-0.66691406 8.92292969 -0.77132812 7.65835937 -0.87890625 6.35546875 C-1 3 -1 3 0 0 Z " fill="#1165A0" transform="translate(658,288)"/>
<path d="M0 0 C0.19676277 8.29683005 0.25943749 15.95075394 -2 24 C-3.26582219 20.13276369 -3.1118765 16.26848738 -3.0625 12.25 C-3.05798828 11.55261719 -3.05347656 10.85523438 -3.04882812 10.13671875 C-3.0371002 8.42444197 -3.01916653 6.71220967 -3 5 C-3.51949219 5.51949219 -4.03898438 6.03898437 -4.57421875 6.57421875 C-11 13 -11 13 -13.4296875 15.3984375 C-16.17578823 18.17792548 -18.81020557 21.04689791 -21.4375 23.9375 C-26.50781272 29.4819282 -31.76677838 34.80535553 -37.10766602 40.08813477 C-41.2736244 44.22590908 -45.25808636 48.47031507 -49 53 C-49.66 52.67 -50.32 52.34 -51 52 C-47.60220902 48.30482322 -44.19740481 44.61625692 -40.78710938 40.93261719 C-39.6331793 39.68473325 -38.48072701 38.43548041 -37.33007812 37.18457031 C-28.96018696 28.09007726 -20.35346993 19.24885057 -11.625 10.5 C-11.10465179 9.9770636 -10.58430359 9.4541272 -10.04818726 8.91534424 C-8.56887647 7.43021319 -7.08594515 5.94880984 -5.6015625 4.46875 C-4.73869629 3.60701172 -3.87583008 2.74527344 -2.98681641 1.85742188 C-1 0 -1 0 0 0 Z " fill="#17506A" transform="translate(715,289)"/>
<path d="M0 0 C7.92 0 15.84 0 24 0 C24 1.98 24 3.96 24 6 C23.34 6 22.68 6 22 6 C22 4.68 22 3.36 22 2 C15.4 2 8.8 2 2 2 C2 11.57 2 21.14 2 31 C7.61 31 13.22 31 19 31 C19 31.33 19 31.66 19 32 C12.73 32 6.46 32 0 32 C0 21.44 0 10.88 0 0 Z " fill="#505050" transform="translate(407,813)"/>
<path d="M0 0 C10.4920021 -0.04517023 20.9839397 -0.0818697 31.476017 -0.10362434 C36.34781759 -0.11406504 41.21954825 -0.12822952 46.09130859 -0.15087891 C50.79212889 -0.172597 55.49288188 -0.18456647 60.19374847 -0.18975449 C61.9879131 -0.19345209 63.78207402 -0.20067251 65.57621002 -0.21146011 C68.08767175 -0.22596128 70.59885476 -0.22797852 73.11035156 -0.22705078 C73.85338028 -0.23424133 74.596409 -0.24143188 75.36195374 -0.24884033 C79.07080394 -0.23399873 81.85057605 -0.06034756 85 2 C79.375 3.125 79.375 3.125 76 2 C73.62355983 1.90985187 71.24460105 1.88243701 68.86645508 1.88647461 C67.78315163 1.88625557 67.78315163 1.88625557 66.67796326 1.8860321 C64.29178866 1.88672855 61.90569221 1.8945084 59.51953125 1.90234375 C57.8647211 1.90420888 56.20991039 1.90563234 54.55509949 1.90663147 C50.20018997 1.91044915 45.84531382 1.92027305 41.49041748 1.93133545 C37.04635062 1.94156567 32.60227837 1.94613255 28.15820312 1.95117188 C19.43878507 1.96189598 10.71940053 1.97948673 2 2 C1.67 7.28 1.34 12.56 1 18 C0.67 18 0.34 18 0 18 C0 12.06 0 6.12 0 0 Z " fill="#44A123" transform="translate(602,686)"/>
<path d="M0 0 C0.495 1.485 0.495 1.485 1 3 C0.49138428 3.50337891 -0.01723145 4.00675781 -0.54125977 4.52539062 C-2.88440728 6.84751978 -5.22346602 9.1737277 -7.5625 11.5 C-8.36236328 12.29148437 -9.16222656 13.08296875 -9.98632812 13.8984375 C-14.24709368 18.14181217 -18.32421826 22.45762278 -22.24243164 27.01757812 C-25.47957663 30.66886543 -28.96777729 34.07154572 -32.4375 37.5 C-33.16904297 38.22703125 -33.90058594 38.9540625 -34.65429688 39.703125 C-36.43389824 41.47109499 -38.21580918 43.23666378 -40 45 C-40 42 -40 42 -38.71484375 40.45703125 C-38.12832031 39.91433594 -37.54179688 39.37164062 -36.9375 38.8125 C-34.42571818 36.4715877 -32.14728728 34.0317185 -29.91796875 31.42578125 C-25.33689781 26.14293442 -20.35157598 21.28187604 -15.375 16.375 C-7.33880987 8.50526519 -7.33880987 8.50526519 0 0 Z " fill="#124478" transform="translate(588,378)"/>
<path d="M0 0 C4.5871014 4.44375448 8.80324503 9.18853047 13 14 C13.45084961 14.51361084 13.90169922 15.02722168 14.36621094 15.55639648 C18.23020188 20.00125295 21.83977948 24.60323711 25.375 29.3125 C25.92027344 30.02728516 26.46554687 30.74207031 27.02734375 31.47851562 C27.54167969 32.16236328 28.05601562 32.84621094 28.5859375 33.55078125 C29.0504834 34.16606689 29.5150293 34.78135254 29.99365234 35.4152832 C31 37 31 37 31 39 C31.66 39 32.32 39 33 39 C32.67 40.32 32.34 41.64 32 43 C31.67 42.01 31.34 41.02 31 40 C30.34 40 29.68 40 29 40 C27.73828125 38.34765625 27.73828125 38.34765625 26.3125 36.0625 C23.55921644 31.76601801 20.54215169 27.80173162 17.3203125 23.84765625 C16 22 16 22 16 20 C15.34 20 14.68 20 14 20 C12.1084693 17.78581383 10.32350321 15.56433016 8.5625 13.25 C8.07201172 12.61578125 7.58152344 11.9815625 7.07617188 11.328125 C6.12853619 10.10041885 5.18516245 8.86940832 4.24658203 7.63476562 C3.2303536 6.30208534 2.19418025 4.98463304 1.15234375 3.671875 C0 2 0 2 0 0 Z " fill="#09555F" transform="translate(430,515)"/>
<path d="M0 0 C0.33 0.66 0.66 1.32 1 2 C1.98742187 1.96519531 2.97484375 1.93039062 3.9921875 1.89453125 C5.27351563 1.86746094 6.55484375 1.84039062 7.875 1.8125 C9.78925781 1.76029297 9.78925781 1.76029297 11.7421875 1.70703125 C12.81726563 1.80371094 13.89234375 1.90039062 15 2 C15.99 3.485 15.99 3.485 17 5 C16.02804687 5.48984375 15.05609375 5.9796875 14.0546875 6.484375 C10.62243997 8.77507604 10.62243997 8.77507604 10.1953125 12.890625 C10.14249962 14.34297908 10.11986465 15.79669507 10.125 17.25 C10.104375 17.99507813 10.08375 18.74015625 10.0625 19.5078125 C10.01557061 21.33805864 10.00425777 23.16915725 10 25 C11.32 25.33 12.64 25.66 14 26 C12.35 26 10.7 26 9 26 C8.93941406 25.28714844 8.87882812 24.57429688 8.81640625 23.83984375 C8.35191899 18.53039712 7.81924749 13.266591 7 8 C7.639375 7.731875 8.27875 7.46375 8.9375 7.1875 C11.33131686 6.11332248 11.33131686 6.11332248 12 3 C9.36 3 6.72 3 4 3 C3.34 4.32 2.68 5.64 2 7 C0.68 6.34 -0.64 5.68 -2 5 C-1.125 1.125 -1.125 1.125 0 0 Z " fill="#1E88C4" transform="translate(372,287)"/>
<path d="M0 0 C-0.01160156 0.60328125 -0.02320313 1.2065625 -0.03515625 1.828125 C-0.04417969 2.62734375 -0.05320312 3.4265625 -0.0625 4.25 C-0.07410156 5.03890625 -0.08570313 5.8278125 -0.09765625 6.640625 C-0.00385306 8.90691002 0.36758937 10.8288895 1 13 C-2 13 -2 13 -3.75390625 11.390625 C-4.35074219 10.68421875 -4.94757813 9.9778125 -5.5625 9.25 C-6.16191406 8.55390625 -6.76132812 7.8578125 -7.37890625 7.140625 C-8.88245173 5.15522037 -9.97578001 3.2624561 -11 1 C-9.54182203 0.83197949 -8.0834516 0.66562857 -6.625 0.5 C-5.81289063 0.4071875 -5.00078125 0.314375 -4.1640625 0.21875 C-2 0 -2 0 0 0 Z " fill="#0E5C99" transform="translate(472,451)"/>
<path d="M0 0 C0.33 0.99 0.66 1.98 1 3 C0.03900391 3.92619141 0.03900391 3.92619141 -0.94140625 4.87109375 C-5.71414528 9.54425253 -10.07343378 14.2229117 -14.078125 19.5625 C-16.48942942 22.62073976 -19.06204035 25.50021925 -21.6875 28.375 C-22.3834729 29.14336182 -22.3834729 29.14336182 -23.09350586 29.92724609 C-25.55194442 32.59509244 -28.00937716 34.94088264 -31 37 C-29.40206392 33.13756023 -26.77848315 30.4178704 -23.9375 27.4375 C-19.48274373 22.67864485 -15.303844 17.77123115 -11.21484375 12.69140625 C-7.62439194 8.32840573 -3.81940259 4.16251677 0 0 Z " fill="#14595B" transform="translate(546,423)"/>
<path d="M0 0 C2.475 0.495 2.475 0.495 5 1 C5 5.29 5 9.58 5 14 C3.35 14 1.7 14 0 14 C0 9.38 0 4.76 0 0 Z " fill="#1680BD" transform="translate(384,375)"/>
<path d="M0 0 C0.9075 0.639375 1.815 1.27875 2.75 1.9375 C5.39221381 3.61428953 6.9898499 4.53689998 10 5 C10.33 4.34 10.66 3.68 11 3 C11.99 3.99 12.98 4.98 14 6 C11.36 6.33 8.72 6.66 6 7 C5.67 7.99 5.34 8.98 5 10 C5.98189187 11.67739862 6.98133771 13.34467377 8 15 C7.67 15.66 7.34 16.32 7 17 C5.49130977 14.90160347 3.99301643 12.79700219 2.5 10.6875 C2.07074219 10.09259766 1.64148438 9.49769531 1.19921875 8.88476562 C-2 4.33984375 -2 4.33984375 -2 1 C-1.34 0.67 -0.68 0.34 0 0 Z " fill="#4C9923" transform="translate(467,557)"/>
<path d="M0 0 C0.66 0.33 1.32 0.66 2 1 C1.01 3.31 0.02 5.62 -1 8 C-0.15179688 8.2784375 0.69640625 8.556875 1.5703125 8.84375 C5.0266536 10.00898572 8.44899792 11.24863176 11.875 12.5 C16.88610591 14.29953909 21.80263691 15.85658012 27 17 C27 17.33 27 17.66 27 18 C15.51274426 18.17036184 6.01201981 13.09563157 -4 8 C-2.87548273 5.0280615 -1.77706209 2.66559313 0 0 Z " fill="#1E4170" transform="translate(192,770)"/>
<path d="M0 0 C0 3.99904969 -1.72586967 5.80200422 -4 9 C-2.02 8.67 -0.04 8.34 2 8 C-0.84606889 10.3190191 -3.40490554 12.12314769 -7 13 C-9.8125 11.625 -9.8125 11.625 -12 10 C-11.01 9.67 -10.02 9.34 -9 9 C-9.33 7.35 -9.66 5.7 -10 4 C-7.525 4.99 -7.525 4.99 -5 6 C-3.35 4.02 -1.7 2.04 0 0 Z " fill="#104757" transform="translate(518,618)"/>
<path d="M0 0 C0.33 0.66 0.66 1.32 1 2 C-3.31880758 7.99834386 -8.0114547 13.59180621 -12.86035156 19.16259766 C-13.3653418 19.74444824 -13.87033203 20.32629883 -14.390625 20.92578125 C-14.84469727 21.44567627 -15.29876953 21.96557129 -15.76660156 22.5012207 C-17.20239962 24.19483467 -17.20239962 24.19483467 -19 27 C-19.66 26.67 -20.32 26.34 -21 26 C-14.15222751 17.19944067 -7.19412 8.52058464 0 0 Z " fill="#135B51" transform="translate(513,461)"/>
<path d="M0 0 C2.91227269 3.28804981 4.49701212 5.59885603 5 10 C2.03 10 -0.94 10 -4 10 C-3.52449439 8.51965236 -3.04448784 7.04074979 -2.5625 5.5625 C-2.29566406 4.73878906 -2.02882813 3.91507813 -1.75390625 3.06640625 C-1 1 -1 1 0 0 Z " fill="#F0F0F0" transform="translate(523,822)"/>
<path d="M0 0 C5.90819071 -0.04945048 11.81626084 -0.08574364 17.72460938 -0.10986328 C19.73439635 -0.1199187 21.7441687 -0.13356485 23.75390625 -0.15087891 C26.64326588 -0.17514724 29.53243202 -0.18648771 32.421875 -0.1953125 C33.31992859 -0.20563507 34.21798218 -0.21595764 35.14324951 -0.22659302 C35.98381897 -0.22674408 36.82438843 -0.22689514 37.69042969 -0.22705078 C38.42767273 -0.231492 39.16491577 -0.23593323 39.92449951 -0.24050903 C42.30519726 0.03536626 43.93016431 0.82098568 46 2 C40.375 3.125 40.375 3.125 37 2 C34.19839498 1.8460737 31.41701575 1.74261955 28.61328125 1.68359375 C27.79627243 1.66281265 26.97926361 1.64203156 26.13749695 1.62062073 C23.52924966 1.55526921 20.92090225 1.49630727 18.3125 1.4375 C16.54360946 1.39430108 14.77472903 1.35068635 13.00585938 1.30664062 C8.67067537 1.19960257 4.33539071 1.09829456 0 1 C0 0.67 0 0.34 0 0 Z " fill="#53A623" transform="translate(641,686)"/>
<path d="M0 0 C0.66 0.66 1.32 1.32 2 2 C1.43152344 2.556875 0.86304688 3.11375 0.27734375 3.6875 C-4.16250159 8.07546067 -8.44375951 12.52093508 -12.4921875 17.2734375 C-13.93272895 18.92296942 -15.43326925 20.47079574 -17 22 C-17.66 21.67 -18.32 21.34 -19 21 C-18.21496094 20.154375 -17.42992187 19.30875 -16.62109375 18.4375 C-10.99396528 12.36532334 -5.39170955 6.28399951 0 0 Z " fill="#146055" transform="translate(663,342)"/>
<path d="M0 0 C0.99 0.33 1.98 0.66 3 1 C-2.28 6.28 -7.56 11.56 -13 17 C-13.99 16.67 -14.98 16.34 -16 16 C-10.72 10.72 -5.44 5.44 0 0 Z " fill="#256DA6" transform="translate(622,567)"/>
<path d="M0 0 C0.66 0 1.32 0 2 0 C5 6.625 5 6.625 5 10 C2.36 10 -0.28 10 -3 10 C-2.39009109 6.44219804 -1.4216319 3.3171411 0 0 Z " fill="#ECECED" transform="translate(330,822)"/>
<path d="M0 0 C3.99500618 1.3697164 6.80009492 3.25722422 10 6 C9.67 6.66 9.34 7.32 9 8 C7.68 7.34 6.36 6.68 5 6 C4.67 7.32 4.34 8.64 4 10 C0 4.5 0 4.5 0 0 Z " fill="#154E75" transform="translate(396,466)"/>
<path d="M0 0 C10.56 0 21.12 0 32 0 C32 0.66 32 1.32 32 2 C31.14245117 1.98952637 30.28490234 1.97905273 29.40136719 1.96826172 C26.21078487 1.93411704 23.02029588 1.90907041 19.82958984 1.89013672 C18.45032685 1.88009747 17.07108504 1.86646323 15.69189453 1.84912109 C13.7061486 1.82478246 11.7202455 1.81456745 9.734375 1.8046875 C8.54038086 1.79421387 7.34638672 1.78374023 6.11621094 1.77294922 C3.14201836 1.98965238 1.49681621 2.43813878 -1 4 C-0.67 2.68 -0.34 1.36 0 0 Z " fill="#2E9941" transform="translate(509,686)"/>
<path d="M0 0 C0.66 0.33 1.32 0.66 2 1 C-3.48518894 7.19623195 -9.07562035 13.22090487 -15 19 C-15 16 -15 16 -13.71484375 14.45703125 C-12.83505859 13.64298828 -12.83505859 13.64298828 -11.9375 12.8125 C-8.54163218 9.56878919 -5.44574576 6.15896032 -2.3828125 2.6015625 C-1.61429517 1.71147181 -0.83152881 0.83152881 0 0 Z " fill="#19506A" transform="translate(563,404)"/>
<path d="M0 0 C1.46179688 0.04737305 1.46179688 0.04737305 2.953125 0.09570312 C5.34688977 0.17784211 7.73435168 0.29258327 10.125 0.4375 C10.125 0.7675 10.125 1.0975 10.125 1.4375 C8.17207031 1.44136719 8.17207031 1.44136719 6.1796875 1.4453125 C4.45309111 1.4828472 2.72652926 1.52199491 1 1.5625 C-0.28390625 1.55863281 -0.28390625 1.55863281 -1.59375 1.5546875 C-6.31261214 1.69988326 -9.07486669 2.07486669 -12.4921875 5.4921875 C-13.27851563 6.46414063 -14.06484375 7.43609375 -14.875 8.4375 C-15.535 8.1075 -16.195 7.7775 -16.875 7.4375 C-12.37009648 0.09604437 -8.27536507 -0.51020205 0 0 Z " fill="#0B86B2" transform="translate(429.875,685.5625)"/>
<path d="M0 0 C0.66 0.33 1.32 0.66 2 1 C0.29639246 2.588417 -1.41311829 4.17050381 -3.125 5.75 C-4.07632812 6.63171875 -5.02765625 7.5134375 -6.0078125 8.421875 C-8.91029774 10.92271085 -11.77508474 12.95213096 -15 15 C-15.66 14.67 -16.32 14.34 -17 14 C-11.39 9.38 -5.78 4.76 0 0 Z " fill="#27A0D9" transform="translate(511,195)"/>
<path d="M0 0 C0 4.01969178 -1.99447067 5.97687379 -4.375 9 C-6.66065833 11.95707046 -8.92505807 14.88758711 -11 18 C-11.66 18 -12.32 18 -13 18 C-11.26971166 13.99561842 -8.6062707 10.72112792 -5.9375 7.3125 C-5.47794922 6.71888672 -5.01839844 6.12527344 -4.54492188 5.51367188 C-1.17900989 1.17900989 -1.17900989 1.17900989 0 0 Z " fill="#0F5559" transform="translate(532,600)"/>
<path d="M0 0 C4.24846075 0.47205119 6.26819288 2.88877522 9 6 C9 6.66 9 7.32 9 8 C9.66 8 10.32 8 11 8 C12.38938077 9.96147874 13.7260411 11.96166576 15 14 C10.94772191 12.38873705 8.23778153 9.49978002 5.25 6.4375 C4.74339844 5.93025391 4.23679687 5.42300781 3.71484375 4.90039062 C0 1.14048812 0 1.14048812 0 0 Z " fill="#19575F" transform="translate(458,466)"/>
<path d="M0 0 C3.04964687 2.95723332 5.99754634 5.99958942 8.875 9.125 C9.49117188 9.78757812 10.10734375 10.45015625 10.7421875 11.1328125 C11.15726562 11.74898437 11.57234375 12.36515625 12 13 C11.67 13.99 11.34 14.98 11 16 C9.16074213 13.71287089 7.32848506 11.42071465 5.5 9.125 C4.97535156 8.47402344 4.45070313 7.82304688 3.91015625 7.15234375 C3.16572266 6.21455078 3.16572266 6.21455078 2.40625 5.2578125 C1.94541016 4.6817627 1.48457031 4.10571289 1.00976562 3.51220703 C0 2 0 2 0 0 Z " fill="#085468" transform="translate(430,515)"/>
<path d="M0 0 C3.3 0 6.6 0 10 0 C9.67 1.32 9.34 2.64 9 4 C6.36 3.67 3.72 3.34 1 3 C0.67 2.01 0.34 1.02 0 0 Z " fill="#1566A1" transform="translate(357,433)"/>
<path d="M0 0 C2.97 1.98 2.97 1.98 6 4 C3.8614515 6.1385485 2.86724686 6.42655063 0 7 C-2 4 -2 4 -2 1 C-1.34 0.67 -0.68 0.34 0 0 Z " fill="#378E22" transform="translate(467,557)"/>
<path d="M0 0 C0.99 0.33 1.98 0.66 3 1 C-0.63 4.96 -4.26 8.92 -8 13 C-8 9.00717059 -6.52191924 7.84668408 -4 4.8125 C-3.2575 3.91144531 -2.515 3.01039063 -1.75 2.08203125 C-1.1725 1.39496094 -0.595 0.70789063 0 0 Z " fill="#1B6C4D" transform="translate(642,365)"/>
<path d="M0 0 C2.78695122 5.57390244 3.27740813 8.8968278 2 15 C1.34 15 0.68 15 0 15 C0 10.05 0 5.1 0 0 Z " fill="#609E1E" transform="translate(724,692)"/>
<path d="M0 0 C0 4.13781054 -1.71509607 5.20919996 -4.5 8.1875 C-5.3353125 9.08855469 -6.170625 9.98960937 -7.03125 10.91796875 C-7.6809375 11.60503906 -8.330625 12.29210937 -9 13 C-9.66 12.67 -10.32 12.34 -11 12 C-7.37 8.04 -3.74 4.08 0 0 Z " fill="#105663" transform="translate(675,329)"/>
<path d="M0 0 C1.43363663 4.3009099 -0.14435045 7.00754189 -2 11 C-3.6875 13.5 -3.6875 13.5 -5 15 C-4.43174347 9.45949887 -2.37113483 4.96284034 0 0 Z " fill="#255A92" transform="translate(599,355)"/>
<path d="M0 0 C0.33 0.66 0.66 1.32 1 2 C-1.31 4.97 -3.62 7.94 -6 11 C-6.99 10.67 -7.98 10.34 -9 10 C-6.03 6.7 -3.06 3.4 0 0 Z " fill="#2485B1" transform="translate(405,702)"/>
<path d="M0 0 C0.33 0.66 0.66 1.32 1 2 C0.07544441 3.508013 -0.8650747 5.00624917 -1.8125 6.5 C-2.33457031 7.3353125 -2.85664062 8.170625 -3.39453125 9.03125 C-3.92433594 9.6809375 -4.45414063 10.330625 -5 11 C-5.99 11 -6.98 11 -8 11 C-5.36 7.37 -2.72 3.74 0 0 Z " fill="#C3E0EE" transform="translate(649,510)"/>
<path d="M0 0 C0.33 0.99 0.66 1.98 1 3 C-1.31 4.98 -3.62 6.96 -6 9 C-6 6 -6 6 -4.6875 4.39453125 C-4.130625 3.87246094 -3.57375 3.35039062 -3 2.8125 C-2.443125 2.28269531 -1.88625 1.75289063 -1.3125 1.20703125 C-0.6628125 0.60955078 -0.6628125 0.60955078 0 0 Z " fill="#185969" transform="translate(546,423)"/>
<path d="M0 0 C0.33 0 0.66 0 1 0 C1 3.96 1 7.92 1 12 C0.67 12 0.34 12 0 12 C-0.33 10.02 -0.66 8.04 -1 6 C-1.99 6.495 -1.99 6.495 -3 7 C-1.125 1.125 -1.125 1.125 0 0 Z " fill="#ECECEC" transform="translate(828,826)"/>
<path d="M0 0 C1.37562854 1.28965176 2.70766393 2.62689293 4 4 C4 4.66 4 5.32 4 6 C4.66 6 5.32 6 6 6 C5.67 7.32 5.34 8.64 5 10 C4.67 9.01 4.34 8.02 4 7 C3.34 7 2.68 7 2 7 C0.5393715 4.35261084 0 3.10551666 0 0 Z " fill="#13614B" transform="translate(457,548)"/>
<path d="M0 0 C0.66 0.33 1.32 0.66 2 1 C0.02 3.31 -1.96 5.62 -4 8 C-4.66 7.34 -5.32 6.68 -6 6 C-4.02 4.02 -2.04 2.04 0 0 Z " fill="#08446B" transform="translate(570,397)"/>
<path d="M0 0 C0.66 0.33 1.32 0.66 2 1 C-2.82142857 7.29464286 -2.82142857 7.29464286 -7 8 C-6.02133662 6.85373678 -5.04205413 5.70800212 -4.0625 4.5625 C-3.51722656 3.92441406 -2.97195313 3.28632813 -2.41015625 2.62890625 C-1.63204305 1.73008851 -0.84063472 0.84063472 0 0 Z " fill="#1F5471" transform="translate(563,404)"/>
<path d="M0 0 C0.66 0.66 1.32 1.32 2 2 C0.02 3.98 -1.96 5.96 -4 8 C-4.66 7.67 -5.32 7.34 -6 7 C-4.02 4.69 -2.04 2.38 0 0 Z " fill="#1E90BA" transform="translate(419,686)"/>
<path d="M0 0 C3.53586014 3.17320782 5.58578031 5.16743695 6 10 C2.46413986 6.82679218 0.41421969 4.83256305 0 0 Z " fill="#0B5A53" transform="translate(451,540)"/>
<path d="M0 0 C0.66 0.33 1.32 0.66 2 1 C1.01 3.64 0.02 6.28 -1 9 C-1.99 8.67 -2.98 8.34 -4 8 C-2.87548273 5.0280615 -1.77706209 2.66559313 0 0 Z " fill="#244A7A" transform="translate(192,770)"/>
<path d="M0 0 C1.98 0 3.96 0 6 0 C6 0.99 6 1.98 6 3 C4.02 3 2.04 3 0 3 C0 2.01 0 1.02 0 0 Z " fill="#0F5B97" transform="translate(384,472)"/>
<path d="M0 0 C0.33 0.66 0.66 1.32 1 2 C-0.98 4.97 -0.98 4.97 -3 8 C-3.99 7.67 -4.98 7.34 -6 7 C-4.02 4.69 -2.04 2.38 0 0 Z " fill="#18625C" transform="translate(513,461)"/>
<path d="M0 0 C-1.49097658 3.7952131 -3.75700849 5.61042731 -7 8 C-4.18918919 0 -4.18918919 0 0 0 Z " fill="#226073" transform="translate(554,423)"/>
<path d="M0 0 C1.65 0.99 3.3 1.98 5 3 C4.401875 3.12375 3.80375 3.2475 3.1875 3.375 C0.73768652 3.95475985 0.73768652 3.95475985 -2 6 C-1.125 1.125 -1.125 1.125 0 0 Z " fill="#154781" transform="translate(200,757)"/>
</svg>
